<svg xmlns="http://www.w3.org/2000/svg" xmlns:xlink="http://www.w3.org/1999/xlink" width="500.982" height="475.881" viewBox="0 0 500.982 475.881"><defs><style>.a{fill:url(#a);}</style><linearGradient id="a" x1="0.092" y1="-0.101" x2="1.341" y2="1.178" gradientUnits="objectBoundingBox"><stop offset="0" stop-color="#4445ed"/><stop offset="1" stop-color="#fa3654"/></linearGradient></defs><path class="a" d="M249.382,280.622c59.39-3.136,109.237,94.223,156.094,62.291,44.568-30.373-36.255-87.727-48.037-135.93-7.324-29.967,7.894-60.362-6.75-88.221C326.374,72.5,305.758-11.929,249.382,1.412c-62.621,14.819-11.926,115.27-58.012,155.053C144.8,196.667,40.782,156,11.235,206.983c-29.166,50.322-25.9,55.028,61.9,153.476s107.528-76.209,176.243-79.837" transform="matrix(0.974, -0.225, 0.225, 0.974, 5.102, 94.202)"/></svg>