<svg xmlns="http://www.w3.org/2000/svg" xmlns:xlink="http://www.w3.org/1999/xlink" width="552.226" height="417.294" viewBox="0 0 552.226 417.294"><defs><style>.a,.g{fill:#6c63ff;}.a,.f,.n{opacity:0.1;}.b{fill:url(#a);}.c{fill:#d38884;}.d{fill:#444053;}.e{fill:#b07473;}.h{fill:#67647e;}.i{fill:#585268;}.j{fill:#e1e7ef;}.k{fill:url(#b);}.l{fill:#a27772;}.m{fill:#cc818c;}.o{fill:#f6f8fb;}.p{fill:url(#c);}.q{fill:#65617d;}.r{fill:#fbbebe;}.s,.z{opacity:0.05;}.t{fill:#7c5c5c;}.u{fill:url(#d);}.v{fill:#fdc2cc;}.w{fill:#d39999;}.x{fill:#7e5659;}.y{fill:#865a61;}.aa{fill:url(#e);}.ab{fill:#fff;opacity:0.5;}.ac{fill:#3f2b3b;}.ad{fill:none;stroke:#3f2b3b;stroke-miterlimit:10;}.ae{fill:#a8a8a8;}.af{opacity:0.2;}</style><linearGradient id="a" x1="0.5" y1="1" x2="0.5" gradientUnits="objectBoundingBox"><stop offset="0" stop-color="gray" stop-opacity="0.251"/><stop offset="0.54" stop-color="gray" stop-opacity="0.122"/><stop offset="1" stop-color="gray" stop-opacity="0.102"/></linearGradient><linearGradient id="b" x1="0.5" x2="0.5" y2="0" xlink:href="#a"/><linearGradient id="c" x1="0.5" x2="0.5" y2="0" xlink:href="#a"/><linearGradient id="d" x1="1.096" x2="1.096" y2="0" xlink:href="#a"/><linearGradient id="e" x1="0.5" x2="0.5" y2="0" xlink:href="#a"/></defs><path class="a" d="M43.44,426.65c8.737,34.05,27.235,63.484,56.47,77.75,60.781,29.653,197.773,14.358,300.03-3.194,52.908-9.082,99.379-34.123,133.157-69.411Z" transform="translate(-37.473 -229.335)"/><path class="a" d="M594.661,57.187H538.555a4.441,4.441,0,1,1,0-8.844h9.708a4.667,4.667,0,0,1-4.854-4.422,4.66,4.66,0,0,1,4.854-4.417h-6.927a4.667,4.667,0,0,1-4.854-4.422,4.664,4.664,0,0,1,4.854-4.422H570.62a82.966,82.966,0,0,0-22.843-5.737c-79.852-9.353-108.364-3.17-118.436,3.194a117.518,117.518,0,0,1-41.04,16.4c-49.267,9.266-141.4,20.416-224.916-3.572C121.88,29.03,91.033,49.2,72.54,82.84H604.4c-.694-9.786-2.772-18.823-6.587-26.731A5.087,5.087,0,0,1,594.661,57.187Z" transform="translate(-52.449 -20.144)"/><path class="a" d="M32.352,280.23a205.777,205.777,0,0,0,2.179,59.407l492.614,16.426a210.251,210.251,0,0,0,34.225-47.568Zm194.822,42.38h-9.708a4.439,4.439,0,1,1,0,8.839H161.384a4.439,4.439,0,1,1,0-8.839h9.708a4.441,4.441,0,1,1,0-8.844h-6.936a4.439,4.439,0,1,1,0-8.839h56.106a4.439,4.439,0,1,1,0,8.839h6.912a4.441,4.441,0,1,1,0,8.844Z" transform="translate(-31.147 -153.986)"/><path class="a" d="M584.481,149.94,46.667,161.866A180.637,180.637,0,0,0,33.78,212.5H575.055a193.667,193.667,0,0,0,7.815-32.274A139.8,139.8,0,0,0,584.481,149.94Zm-441.5,39.079h-9.708a4.441,4.441,0,1,1,0,8.844h-56.1a4.441,4.441,0,1,1,0-8.844h9.708a4.439,4.439,0,1,1,0-8.839H79.941a4.441,4.441,0,1,1,0-8.844h56.106a4.441,4.441,0,1,1,0,8.844h6.931a4.439,4.439,0,1,1,0,8.839Z" transform="translate(-32.503 -86.938)"/><ellipse class="a" cx="36.516" cy="8.198" rx="36.516" ry="8.198" transform="translate(285.955 355.815)"/><ellipse class="a" cx="65.877" cy="5.407" rx="65.877" ry="5.407" transform="translate(341.445 384.642)"/><ellipse class="a" cx="65.877" cy="8.198" rx="65.877" ry="8.198" transform="translate(76.941 373.653)"/><ellipse class="a" cx="49.568" cy="8.198" rx="49.568" ry="8.198" transform="translate(193.692 332.613)"/><ellipse class="a" cx="39.681" cy="8.198" rx="39.681" ry="8.198" transform="translate(217.417 400.898)"/><path class="b" d="M507.208,227.246c-1.048-7.058-7.46-23.527-7.46-23.527h0q-.167-.728-.379-1.456c-4.548-15.63-10.844-16.989-10.844-16.989l-22.551-4.854a1.747,1.747,0,0,1,.485.451,3.137,3.137,0,0,0-.354.053,8.834,8.834,0,0,1-1.976-4.271c-.044-.233-.083-.485-.112-.723a15.863,15.863,0,0,0-1.291-23.847c-.238-.184-.485-.364-.723-.534a3.6,3.6,0,0,0,.3-4.276c-1.776-3.689-5.64-6.024-9.611-7.164a16.293,16.293,0,0,0-9.329-.2,33.7,33.7,0,0,0-4.883,2.267c-2.995,1.5-6.31,2.679-8.548,5.14a2.508,2.508,0,0,0-.854,2.063,5.567,5.567,0,0,0,.849,1.5,4.526,4.526,0,0,1,.044,3.757,36.415,36.415,0,0,0-1.393,3.611,3.776,3.776,0,0,0,.752,3.626,15.977,15.977,0,0,0,1.408.971,7.381,7.381,0,0,1,1.344,1.51q1.34,1.8,2.67,3.606a37.15,37.15,0,0,1,3.344,5.082,24.762,24.762,0,0,0,2.068,3.883,5.753,5.753,0,0,0,.888.932l-.262-.1a4.043,4.043,0,0,0,2.966,1.209h.136a.815.815,0,0,0,.544-.223v.485c.053,1.733.044,3.577-.078,5.31l-.209-.107a1.82,1.82,0,0,0-1.942.2l-20.76,16.659s-4.514,6.174-3.883,16.833l-3.64,15.984s-4.548,13.562-1.048,23.245,5.529,15.222,5.529,15.222,1.4,11,3.5,11.9,3.009,1.383,3.009,1.383l.417,2.631h0s.141.257.388.689c1.529,2.66,7.194,12.047,10.484,11.043a42.083,42.083,0,0,1,.534,7.713L440,329.8s2.272,5.946,2.131,9.062,2.65,7.558,2.65,7.558a14.441,14.441,0,0,0-1.4,10.169c1.33,5.825,3.009,32.657,3.009,32.657l2.427,6.5-.068,7.626a7.281,7.281,0,0,1-1.5,3.4c-1.573,1.709-1.456,3.684-5.247,6.019s-6.194,3.218-6.194,6.31a8.106,8.106,0,0,1-.116,1.286c-.349,2.272-1.029,3.5,5.941,4.165a18.377,18.377,0,0,0,13.649-4.563s1.2-2.184,6.873-3.068c0,0,1.942-.1,2.044-1.815.039-.592.029-1.723,0-2.971-.092-2.374-.32-5.145-.621-5.281-.379-.17-1.039-2.558-1.267-3.422h1.578s1.456-11,0-18.129a29.412,29.412,0,0,1-.141-12.178l-.281-18.819s-1.942-2.077-.417-5.747,0-21.794,0-21.794.563-6.5,2.17-8.028.078-9.528,0-9.946l2.864,9.606s1.257,19.1,3.922,22.551l.767,8.65s5.456,7.96,4.407,12.246,1.121,19.789,1.121,19.789v15.848s-2.451,6.363.971,8.65l1.456-.058c-.485.451-.859,1.131-1.427,1.718-.655.675-1.029,3.242-1.238,5.451-.175,1.869-.233,3.475-.233,3.475a5.723,5.723,0,0,0,4.2,2.49c2.742.16,11.78,7.033,11.78,7.033s8.926,0,11.237-.485l.136-.034a3.034,3.034,0,0,0,1.743-1.422,3.64,3.64,0,0,0,.417-2.616c-.286-1.364-1.369-2.859-3.767-4.131-5.965-3.145-6.854-6.092-6.854-6.092l-3.917-5.878h.558a25.144,25.144,0,0,1,3.917-13.217L497,361.583s1.747-10.586-1.257-16.333c0,0-.248-6.087,1.762-7.956s-2.675-20.755-2.675-20.755-.971-10.14-2.111-19.391h0c4.723,4.48,9.62-11.649,10.446-14.518h.121l-.053-.209c.034-.136.053-.2.053-.2h0s-1.048-3.728-.282-2.971,2.66-2.077,2.66-2.077-.281-15.431,3.009-23.207S507.208,227.246,507.208,227.246Zm-14.076,9.819.024-.044c.485,9.421-.092,29.526-.092,29.526s-.65,2.577-1.345,5.611l-.485-19.1h0l-.485-17.993Zm-60.242-6.495s2.378,29.75,0,34.041a22.474,22.474,0,0,0-1.713,5.878c-.786-2.063-2.451-6.907-1.854-9.475.772-3.32-1.539-12.043-1.539-12.246a20.693,20.693,0,0,1,1.456-8.407c1.665-3.553.573-5.092.573-5.092S431.21,229.445,432.89,230.571Z" transform="translate(-226.908 -81.47)"/><path class="c" d="M454.122,449.685c-2.073,9.111-10.315-4.665-12.193-7.97-.243-.432-.379-.684-.379-.684l.893-4.189,4.723-1.942a13.191,13.191,0,0,1,2.116,1.378A12.759,12.759,0,0,1,454.122,449.685Z" transform="translate(-242.344 -233.581)"/><path class="c" d="M584.78,432.175a.636.636,0,0,1-.053.2,1.034,1.034,0,0,1-.063.218c-.811,2.844-5.616,18.857-10.256,14.411-5.077-4.854-2.611-16.076-2.611-16.076h.034l10.679-1.092,2.116,2.175h0Z" transform="translate(-309.061 -230.977)"/><path class="d" d="M517.2,512.285l.272,30.58a25.081,25.081,0,0,0-3.844,13.106l-13.8.544c-3.369-2.267-.971-8.582-.971-8.582V532.186s-2.131-15.382-1.1-19.644-4.325-12.135-4.325-12.135l-.757-8.587c-2.611-3.432-3.849-22.386-3.849-22.386l-2.8-9.572c.078.413,1.534,8.4,0,9.873s-2.131,7.965-2.131,7.965,1.51,18,0,21.634.408,5.7.408,5.7l.277,18.683a29.215,29.215,0,0,0,.136,12.086c1.442,7.072,0,18,0,18H469.9l.068-7.625-2.4-6.456s-1.65-26.648-2.956-32.419a14.484,14.484,0,0,1,1.369-10.1s-2.742-4.393-2.607-7.485-2.116-8.99-2.116-8.99l-3.194-21.7a42.163,42.163,0,0,0-1.582-12.363c-1.854-6.184-4.6-14.29-4.6-14.29l3.1.277,15.649,1.393s38.05-2.558,39.754-.432a7.14,7.14,0,0,1,.718,2.218c1.709,7.674,3.966,31.715,3.966,31.715s4.6,18.751,2.626,20.6-1.733,7.892-1.733,7.892C518.922,501.752,517.2,512.285,517.2,512.285Z" transform="translate(-247.66 -232.284)"/><path class="e" d="M490.314,691.008c-.107,1.7-2,1.806-2,1.806-5.563.874-6.747,3.039-6.747,3.039a17.866,17.866,0,0,1-13.392,4.534c-6.844-.66-6.179-1.878-5.825-4.136a8.549,8.549,0,0,0,.112-1.272c0-3.092,2.369-3.971,6.077-6.31s3.606-4.276,5.15-5.975,1.7-4.995,1.7-4.995c1.747-3.043,6.179.485,6.179.485.209,1.078,6.8.927,6.8.927s.874,3.5,1.325,3.708c.3.136.519,2.883.607,5.242C490.343,689.3,490.353,690.42,490.314,691.008Z" transform="translate(-252.942 -357.89)"/><path class="f" d="M490.314,703.317c-.107,1.7-2,1.806-2,1.806-5.563.874-6.747,3.039-6.747,3.039a17.866,17.866,0,0,1-13.392,4.534c-6.844-.66-6.179-1.878-5.825-4.135,3.058.757,8.9,1.815,12.314-.039,4.742-2.573,8.145-4.369,8.145-4.369l7.494-3.771C490.343,701.608,490.353,702.729,490.314,703.317Z" transform="translate(-252.942 -370.199)"/><path class="e" d="M576.306,702.26a2.961,2.961,0,0,1-1.709,1.412l-.131.034c-2.267.485-11.028.485-11.028.485s-8.858-6.849-11.538-7a5.635,5.635,0,0,1-4.121-2.475s.053-1.592.223-3.446c.209-2.194.573-4.742,1.218-5.412,1.184-1.238,1.456-2.912,4.121-1.854,0,0,3.805-6.708,8.291-1.524l4.64,7.038s.874,2.912,6.752,6.072c2.349,1.262,3.4,2.747,3.694,4.1A3.616,3.616,0,0,1,576.306,702.26Z" transform="translate(-297.011 -359.974)"/><path class="f" d="M576.306,713.664c-.524.442-1.1.917-1.709,1.412l-.131.034c-2.267.485-11.028.485-11.028.485s-8.858-6.849-11.538-7a5.635,5.635,0,0,1-4.121-2.475s.053-1.592.223-3.446c2.728.815,6.859,2.257,7.965,3.81,1.7,2.364,6.859,5.665,6.859,5.665s9.62-.927,13.892-1.053A3.616,3.616,0,0,1,576.306,713.664Z" transform="translate(-297.011 -371.378)"/><path class="c" d="M502.219,214.45l-12.669,13.392s-15.353-1.131-12.674-5.665c1.364-2.31,1.578-7.145,1.456-11.348-.112-4.053-.529-7.5-.529-7.5s21.532-10.717,19.9-.723a16.449,16.449,0,0,0-.058,5.7C498.564,213.353,502.219,214.45,502.219,214.45Z" transform="translate(-260.362 -111.845)"/><path class="f" d="M499,202.6a16.45,16.45,0,0,0-.058,5.7,15.8,15.8,0,0,1-11.271,4.7c-2.912,0-6.062-2.393-8.417-3.776-.112-4.058-.136-5.907-.136-5.907S500.652,192.607,499,202.6Z" transform="translate(-261.678 -111.845)"/><path class="c" d="M495.774,177.353a15.867,15.867,0,1,1-5.97-12.4A15.867,15.867,0,0,1,495.774,177.353Z" transform="translate(-253.917 -92.883)"/><path class="f" d="M513.65,436.119c-3.951,9.4-29.366,9.6-29.366,9.6V435.464l-1.539-.1c.665,2.937-.932,10.1-.932,10.1-20.086,2.835-24.983-8.611-24.983-8.611l.7-3.917,15.649,1.393s38.05-2.558,39.754-.432A7.141,7.141,0,0,1,513.65,436.119Z" transform="translate(-250.207 -232.567)"/><path class="g" d="M484.284,338.8V328.551l-1.539-.1c.665,2.912-.932,10.1-.932,10.1-15.115,2.131-21.629-3.82-23.925-6.9a9.389,9.389,0,0,1-1.058-1.709l6.135-34.511,1.456-50.791,2.2-8.912.51-4.276V231.4h.053l1.563.67,9.353,4.043,10.625-8.024.155-.112.529-.4.879.7,2.184,1.752,7,45.234s12.135,34.827,14.406,48.884c.092.563.165,1.087.223,1.578C515.606,338.565,484.284,338.8,484.284,338.8Z" transform="translate(-250.207 -126.892)"/><circle class="h" cx="0.903" cy="0.903" r="0.903" transform="translate(228.125 109.323)"/><circle class="h" cx="0.903" cy="0.903" r="0.903" transform="translate(228.542 117.565)"/><circle class="h" cx="0.903" cy="0.903" r="0.903" transform="translate(229.446 130.908)"/><circle class="h" cx="0.903" cy="0.903" r="0.903" transform="translate(230.936 145.281)"/><circle class="h" cx="0.903" cy="0.903" r="0.903" transform="translate(231.838 158.775)"/><circle class="h" cx="0.903" cy="0.903" r="0.903" transform="translate(232.742 173.147)"/><circle class="h" cx="0.903" cy="0.903" r="0.903" transform="translate(232.382 187.364)"/><path class="f" d="M467.727,304.356s-1.01,13.217-2.864,17.062-2.679,14.63-2.679,14.63l-4.305-.485a9.391,9.391,0,0,1-1.058-1.709l6.135-34.511,1.456-50.791,2.2-8.917.51-4.276.058-.024a1.738,1.738,0,0,1,1.534.024l.2.107q-.092.262-.175.539c-1.679,5.257-2.306,14.945-2.306,14.945s2.427,17.722,2.679,25.964S467.727,304.356,467.727,304.356Z" transform="translate(-250.202 -130.796)"/><path class="f" d="M449.282,436.293a2.489,2.489,0,0,1-.165.32c-1.67,2.82-5.9,4.611-7.189,5.1-.243-.432-.379-.684-.379-.684l.893-4.189,4.723-1.942A13.194,13.194,0,0,1,449.282,436.293Z" transform="translate(-242.344 -233.581)"/><path class="h" d="M423.5,298.81l-3.917,2.335-3.568,15.867s-4.466,13.46-1.034,23.076,5.427,15.12,5.427,15.12,1.374,10.921,3.437,11.814S426.8,368.4,426.8,368.4l.413,2.611s5.592-1.9,7.567-5.242-1.456-11.649-1.456-11.649-2.951-7.077-2.194-10.373-1.514-11.95-1.514-12.135a20.568,20.568,0,0,1,1.456-8.349c1.66-3.539.553-5.048.553-5.048l-1.034-10.1Z" transform="translate(-228.006 -163.548)"/><path class="f" d="M547.522,327.839s-10.373,3.912-13.669.485-2.956-19.508-2.956-19.508-3.155-29.672-5.15-34.545-.971-40.045-.971-40.045-1.34-4.548-2.509-5.737a1.273,1.273,0,0,0-.248-.2l.4.087,1.408.3,2.184,1.752,7,45.234s12.135,34.827,14.406,48.884Z" transform="translate(-283.755 -127.258)"/><path class="f" d="M585.4,432.577h-.116c-1.306.17-12.829,1.563-12.877-.835a7.034,7.034,0,0,1,.044-.83l10.679-1.092,2.116,2.175h0c.039.141.068.262.1.359Z" transform="translate(-309.686 -230.967)"/><path class="h" d="M574.346,266.07l7.572,3.951s6.31,16.338,7.32,23.342c0,0,4.674,18.765,1.456,26.483s-2.951,23.037-2.951,23.037-1.854,2.815-2.611,2.063.277,2.951.277,2.951-12.945,1.718-13-.825,2.971-14.7,2.971-14.7.825-28.915-.345-33.448S574.346,266.07,574.346,266.07Z" transform="translate(-309.685 -146.7)"/><path class="f" d="M523.3,329.52s-4.262,10.436-5.635,11.125.277,3.432.277,3.432S525.7,333.228,523.3,329.52Z" transform="translate(-281.23 -179.351)"/><path class="f" d="M517.562,254.094c.048-.2-5.082,5.034-6.456,5.825S516.12,259.87,517.562,254.094Z" transform="translate(-278.039 -140.534)"/><path class="f" d="M487.876,327.82s-7.829,5.063-6.8,7.067S487.876,327.82,487.876,327.82Z" transform="translate(-262.639 -178.477)"/><path class="f" d="M524.47,480.07a41.911,41.911,0,0,0,17.032,5.339Z" transform="translate(-285.015 -256.826)"/><path class="f" d="M491.5,501.3s6.179,7.766,9,7.965S491.5,501.3,491.5,501.3Z" transform="translate(-268.049 -267.751)"/><path class="f" d="M501.426,564c-.277.136-3.5,7-6.8,7.213S501.426,564,501.426,564Z" transform="translate(-269.32 -300.017)"/><path class="f" d="M568.33,594.784s6.126-1.374,7.49,3.019C575.82,597.789,575.407,596.415,568.33,594.784Z" transform="translate(-307.586 -315.754)"/><path class="f" d="M559.84,646.192s7.422-1.514,9,.549S559.84,646.192,559.84,646.192Z" transform="translate(-303.217 -342.038)"/><path class="f" d="M508.863,654c0,.068-7.553,1.514-7.281,2.475s8.057.825,8.334-.689A1.456,1.456,0,0,0,508.863,654Z" transform="translate(-273.234 -346.331)"/><path class="f" d="M554.75,666.957s12.411-1.514,11.649,1.1S554.75,666.957,554.75,666.957Z" transform="translate(-300.598 -352.774)"/><path class="f" d="M420.89,352.44c.068.2,8.174,1.306,9.271,3.917,0,0-7.965-3.713-9.222-3.713" transform="translate(-231.712 -191.146)"/><path class="f" d="M437.726,396.16s-6.732,2.131-6.252,5.339S430.79,400.014,437.726,396.16Z" transform="translate(-237.146 -213.645)"/><path class="f" d="M437.92,426.847s2.451-3.364,4.786-2.747S437.92,426.847,437.92,426.847Z" transform="translate(-240.476 -227.984)"/><path class="f" d="M489.828,164.953a3.821,3.821,0,0,1-.786.587c-1.942,1.131-2.475,2.874-3.4,4.883-.859,1.84-1.806,3.786-3.538,4.83-2.238,1.349-5.184.854-7.509,2.029a5.825,5.825,0,0,0-3.107,5.742,16.562,16.562,0,0,0,.66,2.631,18.761,18.761,0,0,1,.709,5.713.969.969,0,0,1,0,.17,15.863,15.863,0,1,1,16.989-26.585Z" transform="translate(-253.941 -92.879)"/><path class="i" d="M481.017,150.418c-1.743-3.66-5.533-5.98-9.431-7.111a15.84,15.84,0,0,0-9.159-.194,33.6,33.6,0,0,0-4.791,2.247c-2.941,1.485-6.174,2.66-8.388,5.1a2.556,2.556,0,0,0-.84,2.048,5.721,5.721,0,0,0,.83,1.485,4.507,4.507,0,0,1,.044,3.733,34.232,34.232,0,0,0-1.369,3.587,3.774,3.774,0,0,0,.738,3.6,13.453,13.453,0,0,0,1.388.971,7.305,7.305,0,0,1,1.315,1.495l2.621,3.582A36.331,36.331,0,0,1,457.257,176a24.03,24.03,0,0,0,2.029,3.849,4.392,4.392,0,0,0,3.679,1.966.713.713,0,0,0,.582-.277.767.767,0,0,0,.073-.364,18.629,18.629,0,0,0-.694-5.694,16.433,16.433,0,0,1-.66-2.631,5.849,5.849,0,0,1,3.106-5.742c2.33-1.175,5.276-.68,7.509-2.024,1.738-1.048,2.684-2.995,3.538-4.854.937-2.01,1.456-3.752,3.4-4.883S481.983,152.345,481.017,150.418Z" transform="translate(-245.543 -83.12)"/><path class="f" d="M501.63,693.06s2.427,3.092,1.8,4.854S501.63,693.06,501.63,693.06Z" transform="translate(-273.262 -366.432)"/><path class="f" d="M569.28,704.506s.539-4.145,2.7-4.184,2.267-.223,3.917.413,3.2,1.621,2.7,1.767-2.84-2.369-5.247-1.082a17.333,17.333,0,0,0-4.072,3.087Z" transform="translate(-308.075 -370.141)"/><path class="f" d="M480,245.4l6.8-4.762s-9.941-5.873-11.125-5.048-2,8.252-2,8.252Z" transform="translate(-258.873 -130.971)"/><path class="j" d="M479.94,244.668l6.8-4.854s-9.941-5.873-11.125-5.048-2,8.659-2,8.659Z" transform="translate(-258.843 -130.549)"/><path class="g" d="M479.94,244.668l6.8-4.854s-9.941-5.873-11.125-5.048-2,8.659-2,8.659Z" transform="translate(-258.843 -130.549)"/><path class="h" d="M452.091,234.618l-.2-.1a1.762,1.762,0,0,0-1.908.2l-20.386,16.537s-4.432,6.131-3.815,16.707L437.8,284.992s1.374-5.766,3.019-4.669c0,0,2.335,29.536,0,33.793s-3.364,20.192-3.364,20.192l7.9.893s.825-10.785,2.679-14.63S450.9,303.51,450.9,303.51s1.67-19.2,1.393-27.444S449.61,250.1,449.61,250.1,450.285,239.715,452.091,234.618Z" transform="translate(-234.197 -130.363)"/><path class="f" d="M512.91,238.679l-8.47-3.136s10.785-11.814,12.135-5.262Z" transform="translate(-274.708 -127.264)"/><path class="j" d="M512.91,237.829l-8.47-3.136s10.785-11.814,12.135-5.262Z" transform="translate(-274.708 -126.826)"/><path class="g" d="M512.91,237.829l-8.47-3.136s10.785-11.814,12.135-5.262Z" transform="translate(-274.708 -126.826)"/><path class="f" d="M521.32,228.113a.485.485,0,0,1,.349.078Z" transform="translate(-283.394 -127.164)"/><path class="h" d="M523,226.421l22.474,4.854s6.184,1.374,10.649,16.9-6.116,34.54-6.116,34.54l-2.335-1.985,1.17,45.331s-10.373,3.912-13.669.485-2.951-19.522-2.951-19.522-3.16-29.667-5.155-34.545-.971-40.04-.971-40.04S524.262,226.149,523,226.421Z" transform="translate(-284.259 -126.291)"/><path class="f" d="M565.048,285.724c-.315.291-.684,14.008.689,24.449a133.239,133.239,0,0,0,3.883,18.819l-2.039-41.826S566.009,284.831,565.048,285.724Z" transform="translate(-305.745 -156.709)"/><path class="f" d="M559.7,261.6c.549.345,2.956,6.043,1.854,8.378S559.7,261.6,559.7,261.6Z" transform="translate(-303.145 -144.399)"/><path class="f" d="M493.764,153.3a12.406,12.406,0,0,0-4.941-5.174,11.751,11.751,0,0,1,3.7,4.369c.971,1.942.684,3.883-1.2,4.946s-2.476,2.874-3.4,4.883c-.859,1.84-1.806,3.786-3.543,4.854-2.233,1.349-5.179.849-7.509,2.024a5.864,5.864,0,0,0-3.107,5.747,16.506,16.506,0,0,0,.665,2.626,18.777,18.777,0,0,1,.709,5.713.767.767,0,0,1-.078.364.694.694,0,0,1-.578.277,3.344,3.344,0,0,1-1.694-.315,3.941,3.941,0,0,0,2.912,1.141.573.573,0,0,0,.65-.641,18.624,18.624,0,0,0-.7-5.713,15.942,15.942,0,0,1-.665-2.631,5.849,5.849,0,0,1,3.106-5.742c2.33-1.175,5.276-.68,7.509-2.024,1.738-1.048,2.684-2.995,3.539-4.854.937-2.01,1.456-3.752,3.4-4.883S494.735,155.231,493.764,153.3Z" transform="translate(-258.421 -86.007)"/><path class="k" d="M700.557,226.09c-6.689-.131-12.591-4.854-15.935-10.625a10.68,10.68,0,0,1-1.612-4.548,5.254,5.254,0,0,1,.184-1.087,11.287,11.287,0,0,0,.485-1.665,2.915,2.915,0,0,0,0-.68v-.039a4.016,4.016,0,0,0-1.456-3.267c-.893-.84-2.014-1.456-2.946-2.291-2.874-2.524-3.747-6.572-3.8-10.426v-.2c.034-1.65.165-3.306.15-4.956a20.82,20.82,0,0,0-.121-2.806,9.271,9.271,0,0,0-3-6.2c-4.786-3.883-12.834.16-17.79-3.509-1.2-.9-2.179-2.223-3.64-2.573a6.133,6.133,0,0,0-3.325.451c-3.65,1.2-7.723,2.786-9.15,6.31-.815,2.024-.587,4.335-1.335,6.383a31.87,31.87,0,0,1-2.087,3.854,6.033,6.033,0,0,0-.777,3.218,3.632,3.632,0,0,0,.238,1.713,4.369,4.369,0,0,0,1.189,1.7,5.659,5.659,0,0,1-.709,1.136c-.932,1.141-2.364,1.942-3.335,3.077-1.8,2.082-1.728,4.912-.845,7.359s2.48,4.674,3.582,7.058a3.788,3.788,0,0,1,.364,3.218,9.228,9.228,0,0,1-1.612,1.874,5.888,5.888,0,0,0-1.456,3.252c-10.926,2.495-10.936,11.276-10.936,11.276h0l-5.9,14.843s-.947,2.5-2.058,5.8l-6.985-1.252,4.854,8.125c-.917,3.31-1.568,6.378-1.354,7.922,0,0-2.17,10.193,1.689,11.975l8.514,3.83a5.044,5.044,0,0,0,1.18.529l.345.155a.912.912,0,0,0,.8,0h.116a1.145,1.145,0,0,0,.485-.073.971.971,0,0,0,.427-.461.149.149,0,0,1,0-.049l2.548-.738,2.16,2.558c.971.684,1.942,1.277,2.859,1.811l-3.344,33.21s-.539,44.171-2.17,54.238a28.192,28.192,0,0,0-.379,8l-.063.107c.4,2.84,1.456,3.4,1.456,3.4v-.039a.316.316,0,0,0,.063.039,28.6,28.6,0,0,1,1.747-3.747V384c-.034,3.747-.15,8.994-.539,12.407-.66,5.825,1.689,25.022,1.689,25.022l.811,17.474a16.154,16.154,0,0,1-1.99,8.514c-1.941,3.49-4.422,8.4-4.6,10.582a2.187,2.187,0,0,0,0,.354h0l-4.165,5.009s-1.626,2.514,2.048,3.529c1.976.548,5.383,0,8.121-.646a5.427,5.427,0,0,0,4.208-5.281,18.688,18.688,0,0,1,3.437-6.6l.684,4.024,4.582,1.136.587-11.028a4.853,4.853,0,0,0,.315-1.942h0c.9-7.844-2.126-7.14-2.126-7.14a.422.422,0,0,1,.146.272l-.146-.267h0c-1.859-3.67-.971-9.708-.971-9.708s2.427-17.474,3.257-22.09c.6-3.262.349-13.94.15-19.9a7.117,7.117,0,0,0-.024-.723c7.106-.092,15.814-.33,21.925-.922v.718l-1.126,41.283a22.662,22.662,0,0,1-1.582,7.679.418.418,0,0,1-.053.141,33.491,33.491,0,0,0-2.238,10.819l-.524,13.106v.364h0c-.912.349-2.354,1.364-2.393,4.305-.063,4.31,7.533,2.874,7.533,2.874,7.591,0,7.655-7.9,7.655-7.9s.238-7.247.6-12.1S672,443.589,672,443.589l-.117,13.795V445.4l.117-1.752V443.6h0v-.374L672.953,429s6.994-23.707,8.077-28.255c.772-3.233.451-12.97.2-18.353a4.274,4.274,0,0,0-.039-.714c2.17-.194,4.087-.214,4.854-.214h.354s-.359-38.074-1.267-52.422-2.349-27.478-5.965-31.429c-2.184-2.388-5.228-9.761-7.281-15.222a76.153,76.153,0,0,0,13.382,4.369c11.45,2.4,9.883-7.543,9.883-7.543l-1.16-18.8h.078a95.851,95.851,0,0,0-1.262-14.7,43.245,43.245,0,0,0-2.951-10.679c1.243-.485,2.471-1,3.674-1.539,3.111-1.374,6.616-3.32,7.062-6.674h-.15a4.326,4.326,0,0,0,.117-.738Zm-70.979,27.182h0c.024,1.942-.049,5.31-.165,9.033l-3.635-4.854,3.645-5.912ZM678.292,263.13Zm1.514,7.344-6.058-1.942a27.183,27.183,0,0,1,3.742-4.631l.524-.485-.189.039.291-.267.175-.039-.277.267.33-.068a10.333,10.333,0,0,0,2.063,4.15c2.175,2.374-.6,2.975-.6,2.975Z" transform="translate(-326.941 -97.837)"/><path class="l" d="M644.6,715.66,643.89,729.1l-4.519-1.131-.951-5.587Z" transform="translate(-328.53 -368.286)"/><path class="f" d="M644.6,715.66,643.89,729.1l-4.519-1.131-.951-5.587Z" transform="translate(-328.53 -368.286)"/><path class="m" d="M716.48,676.27l6.893,1.427,5.111-4.514V660.461l.117-1.738v-.053h0V658.3l.951-14.139s6.9-23.537,7.97-28.056c.757-3.2.442-12.873.189-18.217-.1-2.189-.189-3.655-.189-3.655L722.3,590.55l-.32,11.7-1.112,40.986a22.711,22.711,0,0,1-1.558,7.625l-.053.141a33.355,33.355,0,0,0-2.208,10.737l-.515,13.033v.359Z" transform="translate(-383.826 -313.68)"/><path class="f" d="M741.45,730.14v.359h0v-.369Z" transform="translate(-396.675 -385.509)"/><path class="f" d="M716.48,762.73l6.893,1.427,5.111-4.514V758.56a1.456,1.456,0,0,1-.733,1.165l-.073.044a13.736,13.736,0,0,1-7.737,1.529l-2.689-.228a2.517,2.517,0,0,0-.713.175v.359Z" transform="translate(-383.826 -400.139)"/><path class="e" d="M725.218,745.778l.073-.039a1.457,1.457,0,0,0,.743-1.262l.112-13.693s1.485-1.063,1.126,3.752-.592,12.009-.592,12.009-.058,7.844-7.548,7.844c0,0-7.49,1.427-7.431-2.854s3.092-4.456,3.092-4.456l2.689.233A13.7,13.7,0,0,0,725.218,745.778Z" transform="translate(-381.365 -385.794)"/><path class="m" d="M642.52,678.113c.175,3.092,9.271,1.306,9.271,1.306l6.121-11.882s5.111-3.927,2.553-7.373a5.514,5.514,0,0,1-.374-.587l-.024-.029h0c-.053-.087-.1-.18-.15-.277h0c-1.835-3.64-.932-9.611-.932-9.611s2.374-17.358,3.208-21.935c.587-3.233.345-13.839.151-19.77-.078-2.466-.151-4.121-.151-4.121l-15.1-4.043v4.5c-.034,3.723-.151,8.931-.534,12.319-.65,5.762,1.665,24.842,1.665,24.842l.8,17.362a16.081,16.081,0,0,1-1.942,8.451c-1.893,3.466-4.369,8.349-4.538,10.509A2.128,2.128,0,0,0,642.52,678.113Z" transform="translate(-345.765 -318.435)"/><path class="f" d="M642.515,741.5c.175,3.092,9.271,1.306,9.271,1.306l6.121-11.882s5.111-3.927,2.553-7.373a5.5,5.5,0,0,1-.374-.587c-.083,1.8-2.058,6.31-2.058,6.31s-5.053,10.111-6.66,12.426-8.587-.432-8.849-.529A2.136,2.136,0,0,0,642.515,741.5Z" transform="translate(-345.761 -381.819)"/><path class="e" d="M655.13,722.283s2.99-.694,2.1,7.092h0a5.014,5.014,0,0,1-2.364,4.451,17,17,0,0,0-7.111,9.863h0a5.378,5.378,0,0,1-4.15,5.242c-2.7.631-6.062,1.184-8.009.641-3.626-1.01-2.019-3.5-2.019-3.5l4.16-4.936s7.252,2.854,8.854.534,6.66-12.421,6.66-12.421S656.018,722.938,655.13,722.283Z" transform="translate(-340.979 -381.462)"/><path class="f" d="M728.14,593.52l-.32,11.7c4.053-.393,6.956-.942,7.451-1.713,1.073-1.66,4.966-2.359,8.276-2.645-.1-2.189-.189-3.655-.189-3.655Z" transform="translate(-389.661 -315.208)"/><path class="f" d="M651.94,607.224a5.553,5.553,0,0,1,1.665-2.01c1.6-.888,1.427,5.708,1.427,5.708s5.339.049,12.159-.039c-.078-2.466-.151-4.126-.151-4.126l-15.1-4.038S651.969,604.594,651.94,607.224Z" transform="translate(-350.613 -319.942)"/><path class="d" d="M646.722,498.378s1.786-4.854,3.4-5.718,1.427,5.7,1.427,5.7,39.229.359,41.19-2.674,13.373-2.854,13.373-2.854-.354-37.8-1.247-52.063-2.315-27.284-5.883-31.206c-2.306-2.539-5.587-10.751-7.616-16.227-1.1-2.99-1.835-5.169-1.835-5.169l-37.443,2.136-.306,3.034L647.8,433.1s-.534,43.865-2.141,53.849S646.722,498.378,646.722,498.378Z" transform="translate(-347.118 -209.533)"/><g class="n" transform="translate(298.076 178.637)"><path d="M698.8,495.689c1.942-3.029,13.373-2.854,13.373-2.854s-.354-37.8-1.247-52.063-2.315-27.284-5.883-31.206c-2.315-2.548-5.587-10.751-7.616-16.227-.927-2.514-1.592-4.451-1.776-5l2.912-.165s.733,2.179,1.84,5.169c2.029,5.475,5.305,13.688,7.611,16.227,3.568,3.922,4.995,16.94,5.883,31.206s1.252,52.063,1.252,52.063-11.412-.175-13.377,2.854c-1.675,2.587-30.541,2.708-38.919,2.684C673.6,498.349,697.284,498.029,698.8,495.689Z" transform="translate(-654.302 -388.17)"/><path d="M647.118,603.352c.723-.4,1.082.714,1.262,2.068a28,28,0,0,0-1.684,3.65s-1.034-.558-1.456-3.4A6.607,6.607,0,0,1,647.118,603.352Z" transform="translate(-645.24 -498.861)"/></g><path class="i" d="M664.313,194.054c-2.592,3.534.029,8.557-2.752,11.994-.917,1.136-2.33,1.942-3.286,3.058-1.772,2.068-1.7,4.878-.835,7.305s2.427,4.64,3.534,7.009a3.75,3.75,0,0,1,.359,3.194,9.048,9.048,0,0,1-1.592,1.859,6.7,6.7,0,0,0-.874,7.116,23.028,23.028,0,0,0,4.606,6.359,3.144,3.144,0,0,0,4.568,1.044,17.96,17.96,0,0,0,8.174-23.44c-1.5-3.606-4.014-7.062-4.039-10.873,0-3.024,1.553-5.912,1.83-8.921.335-3.66-1.83-9.47-6.247-11.067C668.051,191.039,665.629,192.238,664.313,194.054Z" transform="translate(-353.137 -106.879)"/><path class="f" d="M664.313,194.054c-2.592,3.534.029,8.557-2.752,11.994-.917,1.136-2.33,1.942-3.286,3.058-1.772,2.068-1.7,4.878-.835,7.305s2.427,4.64,3.534,7.009a3.75,3.75,0,0,1,.359,3.194,9.048,9.048,0,0,1-1.592,1.859,6.7,6.7,0,0,0-.874,7.116,23.028,23.028,0,0,0,4.606,6.359,3.144,3.144,0,0,0,4.568,1.044,17.96,17.96,0,0,0,8.174-23.44c-1.5-3.606-4.014-7.062-4.039-10.873,0-3.024,1.553-5.912,1.83-8.921.335-3.66-1.83-9.47-6.247-11.067C668.051,191.039,665.629,192.238,664.313,194.054Z" transform="translate(-353.137 -106.879)"/><path class="f" d="M701.294,464.55c-5.189.272-10.072,2.5-14.615,5.029s-8.941,5.383-13.829,7.174" transform="translate(-361.373 -248.839)"/><path class="f" d="M698.987,489.74a21.391,21.391,0,0,0-13.47,6.553c-1.262,1.335-2.349,2.83-3.665,4.111a16.28,16.28,0,0,1-7.223,4.092" transform="translate(-362.289 -261.802)"/><path class="f" d="M695.861,508.91a23.551,23.551,0,0,0-10.834,6.533c-.8.859-1.519,1.776-2.315,2.636-4.3,4.611-10.363,7.058-16.222,9.373" transform="translate(-358.1 -271.667)"/><path class="m" d="M704.255,242.794a106.493,106.493,0,0,0,1.068,12.387c.485,2.912,1.165,5.533,2.141,6.694,2.854,3.4-13.907,7.936-13.907,7.936l-9.9-7.669s7.844-7.223,4.189-14.266S704.255,242.794,704.255,242.794Z" transform="translate(-366.936 -134.592)"/><path class="f" d="M658.79,393.339h39.584c-1.1-2.99-1.835-5.169-1.835-5.169L659.1,390.306Z" transform="translate(-354.138 -209.533)"/><path class="g" d="M645.347,332.967h42.321a14.684,14.684,0,0,1,1.694-11.222A24.8,24.8,0,0,1,693.794,316l.291-.267,14.775-3.272.8-.175s.121-26.866-9.392-30.555a55.62,55.62,0,0,1-15.217-8.674l-13.072,4.038-9.63-4.854c-3.092,3.325-11.3,2.019-11.3,2.019-13.431,1.544-13.431,11.649-13.431,11.649s7.844,18.3,8.441,18.3S645.347,332.967,645.347,332.967Z" transform="translate(-343.243 -149.875)"/><path class="f" d="M671.377,356.587s-8.63-1.912-11.567-5.257" transform="translate(-354.663 -190.575)"/><path class="f" d="M762.679,341.51l-10.009,8.2a17.06,17.06,0,0,0,.33,1.942l.291-.267,14.775-3.272Z" transform="translate(-402.449 -185.522)"/><path class="f" d="M717.46,379.119s2.189,1.233,5.543,2.854h5.752a14.684,14.684,0,0,1,1.694-11.222l-10.14-3.281C723.76,370.678,717.46,379.119,717.46,379.119Z" transform="translate(-384.33 -198.881)"/><path class="g" d="M630.952,293.76l-5.941,3.208-5.825,14.741s-6.062,16.164-5.47,20.445c0,0-2.136,10.106,1.665,11.887l9.9,4.485a.922.922,0,0,0,1.189-1.272c-1.412-2.675-2.966-6.859-.485-9.159l-2.854-5.941,10.315-16.882,3.446-5.825Z" transform="translate(-330.634 -160.949)"/><path class="f" d="M677.008,350.868c.515,2.1,2.252,5.339,8,6.548l6.31,5.169,6.713,3.043,2.738,1.238,1.16-8.383-2.636-1.456-3.073-1.679s-6.931-12.557-17.906-7.281a2.427,2.427,0,0,0-1.31,2.8Z" transform="translate(-363.473 -188.23)"/><path class="m" d="M677.759,349.428c.515,2.1,2.247,5.339,8,6.548l6.31,5.169,6.718,3.043,2.733,1.238,1.16-8.383-2.636-1.456-3.048-1.665s-6.936-12.557-17.911-7.257a2.427,2.427,0,0,0-1.325,2.762Z" transform="translate(-363.865 -187.503)"/><circle class="f" cx="15.334" cy="15.334" r="15.334" transform="translate(310.928 88.407)"/><circle class="m" cx="15.334" cy="15.334" r="15.334" transform="translate(310.928 88.053)"/><path class="f" d="M717.991,284.032l-4.611-8.96s6.747-2.728,7.237-5.888,6.465,3.7,5.174,5.98S717.991,284.032,717.991,284.032Z" transform="translate(-382.23 -147.881)"/><path class="g" d="M717.991,282.562l-4.611-8.96s6.747-2.728,7.237-5.888,6.465,3.708,5.174,5.98S717.991,282.562,717.991,282.562Z" transform="translate(-382.23 -147.125)"/><path class="o" d="M625.637,343.33l25.478,34.254s-9.392,5.111-22.328-4.038l-5.587-6.66L607.25,340Z" transform="translate(-327.615 -184.744)"/><path class="m" d="M634.167,375.874l2.32-.063s14.173-13.756,17.654-6.8-8.829,13.465-8.829,13.465l-3.742,2.019-4.878,1.456-3.121-4.189Z" transform="translate(-341.159 -198.664)"/><path class="f" d="M634.187,391.115a3.464,3.464,0,0,1,.058,2.4.972.972,0,0,1-.422.461,1.082,1.082,0,0,1-.485.068,4.878,4.878,0,0,1-3.2-1.582,14.606,14.606,0,0,1-2.073-3A5.533,5.533,0,0,1,627,385.887c.252-1.364,1.456-2.31,2.636-3.077,2.349-1.553,2.427.257,2.942,2.257S633.648,389.1,634.187,391.115Z" transform="translate(-337.757 -206.473)"/><path class="g" d="M633.455,391.115a3.491,3.491,0,0,1,.058,2.4.97.97,0,0,1-.422.461,1.091,1.091,0,0,1-.485.068,4.854,4.854,0,0,1-3.2-1.582,14.44,14.44,0,0,1-2.077-3,5.5,5.5,0,0,1-1.058-3.573c.248-1.364,1.456-2.31,2.631-3.077,2.354-1.553,2.427.257,2.946,2.257S632.911,389.1,633.455,391.115Z" transform="translate(-337.379 -206.473)"/><path class="f" d="M623.85,315.815l1.184-2L624,317.533Z" transform="translate(-321.033 -161.491)"/><path class="f" d="M721.19,375.031l2.733,1.238,1.16-8.383-2.636-1.456C724.267,368.517,722.675,372.376,721.19,375.031Z" transform="translate(-386.249 -198.346)"/><path class="f" d="M730.462,362.119s-8.824.539-12.572-1.869" transform="translate(-384.551 -195.165)"/><g class="n" transform="translate(307.245 123.064)"><path d="M737.362,324.08a24.842,24.842,0,0,1,4.432-5.752,11.822,11.822,0,0,1,1.306-.709l13.756-2.825.8-.175s.121-26.866-9.388-30.555a57.141,57.141,0,0,1-14.834-8.354l1.044-.32a55.474,55.474,0,0,0,15.217,8.674c9.514,3.684,9.388,30.555,9.388,30.555h-1.427l-14.076,2.694s-.607.587-.791.757a27.281,27.281,0,0,0-4.5,5.951,14.921,14.921,0,0,0-1.18,11.28h-1.456A14.837,14.837,0,0,1,737.362,324.08Z" transform="translate(-699.792 -274.56)"/><path d="M664.13,277.9c.228-.034.447-.068.684-.092a24.613,24.613,0,0,0,2.912.238A26.483,26.483,0,0,1,664.13,277.9Z" transform="translate(-664.13 -275.805)"/><path d="M696.468,278.548l-8.708-4.407a4.608,4.608,0,0,0,.485-.461l9.086,4.6Z" transform="translate(-676.29 -273.68)"/></g><path class="g" d="M745.28,340l5.825,7.135,1.189,19.377s1.544,9.863-9.747,7.485-24.357-9.727-24.357-9.727,6.31-8.441,2.854-11.649l16.168,5.233s2.733-.6.592-2.971-2.519-6.66-2.519-6.66Z" transform="translate(-384.705 -184.744)"/><path class="f" d="M779.42,382.17l3.208,3.684A4.626,4.626,0,0,1,779.42,382.17Z" transform="translate(-416.215 -206.446)"/><path class="f" d="M736.99,360.8l4.995,6.417-2.495.6Z" transform="translate(-379.255 -185.673)"/><path class="f" d="M665.312,196.2a5.121,5.121,0,0,1,.534-4.179,33,33,0,0,0,2.063-3.83c.733-2.029.51-4.325,1.311-6.31,1.412-3.519,5.427-5.092,9.023-6.31a6.067,6.067,0,0,1,3.281-.447c1.456.345,2.4,1.665,3.592,2.553,4.883,3.64,12.824-.369,17.547,3.485a9.185,9.185,0,0,1,2.956,6.155,54.332,54.332,0,0,1-.029,7c-.078,4.087.689,8.557,3.747,11.266.922.815,2.01,1.427,2.912,2.272a3.977,3.977,0,0,1,1.456,3.247,11.259,11.259,0,0,1-.485,1.65c-.607,2.131.3,4.369,1.408,6.31,3.3,5.713,9.12,10.421,15.717,10.552-.442,3.33-3.883,5.262-6.965,6.626-3.883,1.743-8.019,3.451-12.295,3.233s-8.737-2.956-9.484-7.169c-.257-1.456-.223-3.208-1.456-3.966-.757-.461-1.738-.345-2.553-.689-1.18-.485-1.762-1.811-2.15-3.029a27.259,27.259,0,0,1-1.267-7.766c-.053-3.126.359-6.538-1.413-9.111-1.641-2.383-4.553-3.592-6.446-5.781-1.747-2.029-3.645-4.475-6.509-4.854C675.845,196.549,667.652,201.932,665.312,196.2Z" transform="translate(-357.364 -99.851)"/><path class="i" d="M665.312,194.73a5.121,5.121,0,0,1,.534-4.179,33,33,0,0,0,2.063-3.83c.733-2.029.51-4.325,1.311-6.31,1.412-3.524,5.427-5.1,9.023-6.31a6.067,6.067,0,0,1,3.281-.447c1.456.345,2.4,1.665,3.592,2.553,4.883,3.64,12.824-.369,17.547,3.485a9.186,9.186,0,0,1,2.956,6.16,54.253,54.253,0,0,1-.029,6.994c-.078,4.087.689,8.557,3.747,11.266.922.815,2.01,1.427,2.912,2.272a3.977,3.977,0,0,1,1.456,3.247,11.259,11.259,0,0,1-.485,1.65c-.607,2.131.3,4.369,1.408,6.31,3.31,5.694,9.106,10.417,15.7,10.548-.442,3.33-3.883,5.262-6.965,6.63-3.883,1.738-8.019,3.446-12.295,3.228s-8.737-2.956-9.484-7.169c-.257-1.456-.223-3.208-1.456-3.966-.757-.461-1.738-.345-2.553-.689-1.18-.485-1.762-1.811-2.15-3.029a27.231,27.231,0,0,1-1.267-7.766c-.053-3.126.359-6.538-1.413-9.111-1.641-2.383-4.553-3.592-6.446-5.781-1.747-2.029-3.645-4.475-6.509-4.854C675.845,195.079,667.652,200.472,665.312,194.73Z" transform="translate(-357.364 -99.095)"/><path class="f" d="M684.793,283.392l8.79-7.135s-6.019-3.262-6.737-6.043-5.533,1.32-5.043,3.815S684.793,283.392,684.793,283.392Z" transform="translate(-365.962 -148.353)"/><path class="g" d="M685.534,281.187l8.79-7.13s-6.019-3.262-6.708-6.043-5.534,1.32-5.043,3.815S685.534,281.187,685.534,281.187Z" transform="translate(-366.359 -147.221)"/><circle class="f" cx="0.699" cy="0.699" r="0.699" transform="translate(327.612 132.107)"/><circle class="f" cx="0.699" cy="0.699" r="0.699" transform="translate(327.612 135.99)"/><circle class="f" cx="0.699" cy="0.699" r="0.699" transform="translate(327.612 139.869)"/><g class="n" transform="translate(307.806 79.753)"><path d="M671.922,190.42c.694-1.908.544-4.048,1.194-5.97a6.523,6.523,0,0,0-.743,1.369c-.806,2-.578,4.3-1.315,6.31l-.049.117A11.089,11.089,0,0,0,671.922,190.42Z" transform="translate(-668.232 -184.45)"/><path d="M724.434,249.8c-3.883,1.738-8.019,3.446-12.295,3.228s-8.737-2.956-9.485-7.164c-.257-1.456-.223-3.213-1.456-3.97-.757-.461-1.738-.345-2.553-.689-1.18-.485-1.762-1.811-2.15-3.029a27.233,27.233,0,0,1-1.267-7.766c-.053-3.121.364-6.533-1.408-9.111-1.646-2.383-4.558-3.587-6.451-5.781-1.747-2.024-3.645-4.475-6.509-4.854-3.927-.534-12.135,4.854-14.455-.883a4.513,4.513,0,0,1,.15-3.315c-.17.286-.335.573-.485.864a5.142,5.142,0,0,0-.529,4.184c2.335,5.728,10.528.345,14.455.883,2.864.388,4.762,2.84,6.509,4.854,1.893,2.194,4.805,3.4,6.446,5.786,1.776,2.573,1.359,5.985,1.412,9.106a27.231,27.231,0,0,0,1.267,7.766,4.509,4.509,0,0,0,2.15,3.029c.815.345,1.8.233,2.553.689,1.252.757,1.218,2.529,1.456,3.971.757,4.208,5.213,6.946,9.484,7.164s8.388-1.485,12.3-3.228c2.815-1.252,5.951-2.985,6.8-5.825C729.016,247.548,726.628,248.82,724.434,249.8Z" transform="translate(-665.288 -195.777)"/></g><path class="p" d="M865.242,294.368C854.966,288.456,851.083,287,851.063,287l-.214-.15a8.548,8.548,0,0,1-2.587-3.272,6.8,6.8,0,0,1,0-.7.294.294,0,0,0,0,.068c.16-3.131,2.388-5.98,4.5-8.465l5.4-6.354a6.261,6.261,0,0,0,1.393-2.2,5.083,5.083,0,0,0,.146-1.354v-.553c-.029-1.578-.073-3.16-.131-4.737-.049-1.379-.4-3.116-1.781-3.4-.718-.146-1.67.112-2.048-.485a1.18,1.18,0,0,1-.092-.82.288.288,0,0,0,0,.068v-.078a18.276,18.276,0,0,0,.51-3.247,4.423,4.423,0,0,0-.223-1.645c-.8-2.286-3.548-3.228-5.98-3.66s-5.16-.8-6.684-2.7a19.8,19.8,0,0,0-1.33-1.83,5.247,5.247,0,0,0-2.485-1.228,14.076,14.076,0,0,0-9.043.786,8.117,8.117,0,0,1-3.645,1.155c-1.291-.078-2.485-1.01-3.805-1.233-2.136-.364-4.179,1.2-5.233,3.063a7.491,7.491,0,0,0-.971,3.611v.214h0a5.281,5.281,0,0,0,1.388,3.689c.922.971,2.291,1.612,2.674,2.869.155.51.117,1.063.257,1.582a1.424,1.424,0,0,0,.058.189l-.068.092a16.018,16.018,0,0,0-3.4,9.873,16.387,16.387,0,0,0,11.513,15.533c0,.16,0,.32,0,.485a6.983,6.983,0,0,1-2.233,5.436L812.4,293.407s-8.776-1.044-11.941,11.78a21.868,21.868,0,0,0-.544,6.5,18.855,18.855,0,0,1-2.427,9.742c-3.6,7.048-2.776,23.226,4.582,24.828,6.946,1.514,9.664.883,9.951.811v.282c-.117,3.039-1.218,29.221-5.223,32.385-1.107.879-.9,1.456,0,1.869,0,0,0,.17-.024.485-.121,1.942-.738,9.222-3.4,13.358-3.111,4.805-2.786,32.521-2.786,32.521l-2.121,16.338s1.306,10.091,0,11.853c-1.17,1.568-2.723,38.9-3.048,47h-.136a3.941,3.941,0,0,0-3.145,1.942c-1.718,2.791-7.737,7.951-7.737,7.951-1.306,1.854-6.135,3.631-8.688,4.466a5.4,5.4,0,0,0-.971.427,5.179,5.179,0,0,0-2.194,2.31,2.48,2.48,0,0,0-.233,1.942c.65,1.6,14.227,2.723,17.663,1.116,2.7-1.257,13.4-2.912,17.838-3.563a3.66,3.66,0,0,0,3.174-3.174,2.092,2.092,0,0,0-.408-1.587h0c-.849-1.053-1.281-3.932-1.456-5.825a3.935,3.935,0,0,0,1-.592,42.642,42.642,0,0,1,2.427-17.139c3.271-8.65,4.252-24.668,3.437-35.079,0,0,9.975-42.928,17.828-46.933h0c.121.155,3.932,5.043,4.417,20.183.485,15.377,6.048,25.469,6.048,25.469s-2.456,26.109,0,35.88l-3.208,15.411c-.238-.2-.388-.354-.388-.354s.1.427.228,1.112l-.068.33.141.029a30.337,30.337,0,0,1,.68,7.281c-.126,1.121-.442,2.66-.655,4.17-.34,2.374-.432,4.674.815,5.179,2.048.825,14.076,1.942,16.115-.7a3.781,3.781,0,0,0,.592-3.956,4.008,4.008,0,0,0-.592-1.01s-3.194-5.218-2.291-8.9a2.709,2.709,0,0,0-.383-2.111,108.507,108.507,0,0,1,2.752-17.26c2.048-7.708,6.363-24.609,3.189-35.72h0q-.18-.655-.408-1.281a47.975,47.975,0,0,1-1.8-18.741,38.2,38.2,0,0,1,0-16.338c1.966-8.97,3.339-17.78,3.339-17.78s1.082-11.853.136-19.12a4.765,4.765,0,0,0-.063-.485l.514-.117s-2.781-12.334-3.762-20.183c-.233-1.854-.534-4.2-.864-6.7a17.106,17.106,0,0,0,2.665-.665c8.829-3.043,11.611-30.58,11.611-30.58v-8.737S875.546,300.295,865.242,294.368Zm-65.8,212.718c-.272-.136-.432-.228-.432-.228h0Z" transform="translate(-412.506 -133.2)"/><path class="q" d="M885.173,596.719c3.83,11.014-.641,28.891-2.718,36.89a111.511,111.511,0,0,0-2.713,17.561,36.983,36.983,0,0,1-14.047-.32l3.354-16.44c-2.4-9.737,0-35.759,0-35.759s-5.427-10.057-5.907-25.381c-.485-15.081-4.189-19.959-4.305-20.11h0c-7.66,3.99-17.4,46.772-17.4,46.772.8,10.373-.165,26.337-3.354,34.948a43.2,43.2,0,0,0-2.393,17.076,5.193,5.193,0,0,1-4.369.835c-4.558-.738-10.023-4.665-10.023-4.665s1.752-46.6,3.034-48.364,0-11.814,0-11.814l2.073-16.28s-.32-27.619,2.713-32.4c2.621-4.136,3.223-11.407,3.339-13.314v-.485l4.621-5.534s44.695-3.354,48.054,0c.82.82,1.33,2.694,1.631,5.048.922,7.242-.136,19.052-.136,19.052s-1.34,8.781-3.257,17.717a38.889,38.889,0,0,0,0,16.285A48.749,48.749,0,0,0,885.173,596.719Z" transform="translate(-437.767 -276.571)"/><path class="l" d="M929.263,802.983c-1.995,2.636-13.727,1.519-15.727.7-1.218-.485-1.126-2.8-.8-5.165.209-1.5.514-3.034.641-4.15.316-2.873-.971-8.7-.971-8.7s2.631,2.8,3.267,0a3.045,3.045,0,0,1,2.281-2.165,5.961,5.961,0,0,1,4.145.257c2.073.9,5.529,2.82,4.912,5.412-.879,3.665,2.233,8.868,2.233,8.868a4.034,4.034,0,0,1,.583,1,3.83,3.83,0,0,1-.568,3.946Z" transform="translate(-484.653 -412.841)"/><path class="f" d="M929.385,819.176c-1.995,2.636-13.727,1.519-15.727.7-1.218-.485-1.126-2.8-.8-5.165,1.262.592,3.4,1.082,6.975.752a19.682,19.682,0,0,1,2.509-.078,58.355,58.355,0,0,0,7.621-.155A3.83,3.83,0,0,1,929.385,819.176Z" transform="translate(-484.775 -429.034)"/><path class="f" d="M852.056,633.435c.8,10.373-.165,26.337-3.354,34.948a43.2,43.2,0,0,0-2.393,17.076,5.193,5.193,0,0,1-4.369.835c.971-6.732,5.068-35.739,7.693-58.66a95.988,95.988,0,0,1,16.989-44.054l2.791,3.073C861.793,590.652,852.056,633.435,852.056,633.435Z" transform="translate(-448.388 -310.093)"/><path class="r" d="M902.77,320.344l-1.942,9.577-9.548,16.042-11.771-5.029s-16.018-16.761-5.946-19.154a8.911,8.911,0,0,0,3.34-1.485,6.906,6.906,0,0,0,2.607-5.776,17.707,17.707,0,0,0-1.621-6.863l20.59-6.465a33.053,33.053,0,0,0-1.456,8.339c-.16,5.611,1.942,8.373,3.636,9.708A6.185,6.185,0,0,0,902.77,320.344Z" transform="translate(-462.951 -164.773)"/><path class="f" d="M906.571,301.19a33.053,33.053,0,0,0-1.456,8.339,15.667,15.667,0,0,1-1.2,1.277,16.29,16.29,0,0,1-16.28,3.713A17.708,17.708,0,0,0,886,307.655Z" transform="translate(-471.062 -164.773)"/><path class="r" d="M898.72,278.5a16.207,16.207,0,1,1-4.748-11.534A16.285,16.285,0,0,1,898.72,278.5Z" transform="translate(-460.847 -144.718)"/><path class="f" d="M902.77,339.461l-1.942,9.577-9.548,16.042-11.771-5.029s-16.018-16.761-5.946-19.154a8.911,8.911,0,0,0,3.34-1.485c-1.815,4.99,5.679,15.372,5.679,15.372.874,1.286,2.874.485,2.874.485,4.83-.733,13.717-14.62,15.169-16.93a6.184,6.184,0,0,0,2.145,1.121Z" transform="translate(-462.951 -183.89)"/><path class="f" d="M898.655,524.977c-2.835.646-18.518,4.116-24.464,3.247-6.543-.971-19.265-1.592-19.265-1.592s-8.1.437-10.6-.7v-.485l4.621-5.534s44.695-3.354,48.054,0C897.844,520.749,898.354,522.623,898.655,524.977Z" transform="translate(-449.618 -276.56)"/><path class="g" d="M857.473,355.425s-8.422-11.649-5.247-16.212L838,345.038S829.437,344,826.35,356.779a22.234,22.234,0,0,0-.529,6.485,19.186,19.186,0,0,1-2.344,9.708c-3.509,7.024-2.713,23.148,4.47,24.755s9.732.8,9.732.8-.971,29.211-5.106,32.565,10.582,2.553,10.582,2.553,12.722.641,19.27,1.6,24.9-3.354,24.9-3.354-2.713-12.29-3.674-20.11-3.2-24.478-3.2-24.478l16.28-22.056s2.873-13.329-7.184-19.236-13.839-7.354-13.839-7.354S865.6,355.1,860.337,355.9C860.347,355.9,858.347,356.707,857.473,355.425Z" transform="translate(-437.846 -184.05)"/><path class="f" d="M854.3,382.74s-.155,5.271.8,7.344,4.47,13.591,4.47,13.591H851.59s4.31-4.631,3.995-6.868S854.3,382.74,854.3,382.74Z" transform="translate(-453.354 -206.739)"/><path class="r" d="M878.889,440.912s-17.629-4.31-19.27-7.98-6.169-11.887-6.169-11.887l1.859-2.5,8.572,6.728s10.193,8.14,15.008,8.941S878.889,440.912,878.889,440.912Z" transform="translate(-454.311 -225.162)"/><path class="s" d="M878.889,440.912s-17.629-4.31-19.27-7.98-6.169-11.887-6.169-11.887l1.859-2.5,8.572,6.728s10.193,8.14,15.008,8.941S878.889,440.912,878.889,440.912Z" transform="translate(-454.311 -225.162)"/><path class="r" d="M903.5,421.767v9.562h-1.534a44.7,44.7,0,0,0-21.715,5.625l-2.875,1.593-.772.432-4.951-11.164,4.631-4.15h.238c1.131.112,6.029.519,8.106-.18,1.971-.67,4.417-2.791,10.222-1.311,2.859.733,5.305,3.937,8.077,2.937Z" transform="translate(-463.677 -226.768)"/><path class="f" d="M932.149,374.5l3.189,3.592v8.7s-2.713,27.454-11.329,30.487S900,415.522,900,415.522s-3.975-10.533-2.116-11.164,16.431-4.485,16.431-4.485-.2-16.105,2.985-20.9c0,0-2.073-15,5.111-15.324S932.149,374.5,932.149,374.5Z" transform="translate(-476.923 -196.913)"/><path class="g" d="M933.152,374.5l3.194,3.592v8.7s-2.713,27.454-11.334,30.487S901,415.522,901,415.522s-3.975-10.533-2.111-11.164,16.43-4.485,16.43-4.485-.209-16.105,2.985-20.9c0,0-2.078-15,5.106-15.324S933.152,374.5,933.152,374.5Z" transform="translate(-477.441 -196.913)"/><path class="f" d="M897.784,285.35a6.416,6.416,0,0,0-.364-3.111,2.369,2.369,0,0,0-2.534-1.456c-1.364.32-1.942,2.1-3.291,2.524a2.63,2.63,0,0,1-2.912-1.495,7.446,7.446,0,0,1-.553-3.475v-4a6.62,6.62,0,0,0-.942-4.16c-1.112-1.417-3.728-2.039-5.475-1.98a4.645,4.645,0,0,0-3.126,1.257,4.023,4.023,0,0,1-3.286,1.17,2.83,2.83,0,0,1-2.291-1.98v-.049a16.28,16.28,0,1,1,24.2,21.61,43.864,43.864,0,0,0,.573-4.854Z" transform="translate(-464.377 -144.657)"/><path class="t" d="M870.826,259.68a2.854,2.854,0,0,1-2.3-1.985c-.131-.514-.1-1.063-.248-1.573-.374-1.257-1.713-1.908-2.611-2.864-1.8-1.908-1.679-5.043-.408-7.339,1.029-1.849,3.019-3.4,5.106-3.048,1.291.223,2.427,1.141,3.718,1.228a7.5,7.5,0,0,0,3.558-1.15,13.406,13.406,0,0,1,8.844-.786,5.1,5.1,0,0,1,2.427,1.228,21.228,21.228,0,0,1,1.3,1.82c1.485,1.893,4.15,2.267,6.524,2.694s5.058,1.369,5.825,3.65c.519,1.514,0,3.155-.282,4.728a1.428,1.428,0,0,0,.063.971c.374.612,1.3.354,2,.485,1.345.286,1.689,2.019,1.743,3.4q.082,2.359.126,4.723a6.018,6.018,0,0,1-.141,1.747,6.17,6.17,0,0,1-1.354,2.2l-5.271,6.334c-2.34,2.806-4.82,6.077-4.369,9.708-1.107.485-2.427-.461-2.786-1.621a7.252,7.252,0,0,1,.175-3.6,44.091,44.091,0,0,0,.845-6.237,6.4,6.4,0,0,0-.364-3.107,2.369,2.369,0,0,0-2.534-1.456c-1.369.32-1.942,2.1-3.291,2.524a2.63,2.63,0,0,1-2.912-1.495,7.426,7.426,0,0,1-.553-3.471v-4a6.619,6.619,0,0,0-.942-4.16c-1.112-1.417-3.728-2.039-5.475-1.98a4.645,4.645,0,0,0-3.121,1.257A4.03,4.03,0,0,1,870.826,259.68Z" transform="translate(-459.902 -134.184)"/><path class="f" d="M885.3,381.92l5,20.537S894.241,402.433,885.3,381.92Z" transform="translate(-470.702 -206.317)"/><path class="f" d="M915.633,374.85s-6.543,10.717-3.99,21.8l1.218.087S910.687,391.611,915.633,374.85Z" transform="translate(-483.954 -202.679)"/><path class="f" d="M929,499.215s8.038-2.66,8.621,3.509C937.64,502.725,936.125,498.5,929,499.215Z" transform="translate(-493.19 -266.385)"/><path class="f" d="M866.621,426.81s-1.6,11.164,1.276,15.644a35.008,35.008,0,0,1-14.047,1.917l-.971-17.561Z" transform="translate(-454.018 -229.418)"/><path class="f" d="M877.373,440.672l-.772.432L871.65,429.94l4.631-4.15h.238C876.446,426.343,875.154,435.94,877.373,440.672Z" transform="translate(-463.677 -228.893)"/><path class="g" d="M861.727,425.83s-1.6,11.164,1.277,15.639a34.907,34.907,0,0,1-14.047,1.917L843.37,425.83Z" transform="translate(-449.124 -228.913)"/><path class="l" d="M812.62,795.754a3.616,3.616,0,0,1-3.1,3.165c-4.334.646-14.775,2.3-17.411,3.553-3.354,1.6-16.6.485-17.241-1.116a2.534,2.534,0,0,1,.228-1.942,5.117,5.117,0,0,1,2.141-2.3,5.678,5.678,0,0,1,.971-.427c2.495-.83,7.208-2.6,8.48-4.451,0,0,5.878-5.14,7.553-7.917a3.834,3.834,0,0,1,3.068-1.912c1.4-.063,2.956.641,3.6,3.7,0,0,7.655,4.369,9.708.539,0,0,.32,5.883,1.592,7.494h0A2.136,2.136,0,0,1,812.62,795.754Z" transform="translate(-413.821 -412.408)"/><path class="f" d="M812.62,808.2a3.616,3.616,0,0,1-3.1,3.165c-4.334.646-14.775,2.3-17.411,3.553-3.354,1.6-16.6.485-17.241-1.116a2.534,2.534,0,0,1,.228-1.942,5.117,5.117,0,0,1,2.141-2.3c2.16,1.456,6.956,2.835,17.5,1.189,10.062-1.573,15.047-3.111,17.474-4.16h0a2.136,2.136,0,0,1,.408,1.611Z" transform="translate(-413.821 -424.856)"/><g class="n" transform="translate(404.398 115.114)"><path d="M942.432,268.224v-.078a14.3,14.3,0,0,0,.485-3.626,23.921,23.921,0,0,1-.485,2.912A1.768,1.768,0,0,0,942.432,268.224Z" transform="translate(-904.477 -261.015)"/><path d="M892.926,279.448a4.617,4.617,0,0,1,.393,1.825,5.5,5.5,0,0,0-.393-2.543,2.359,2.359,0,0,0-2.529-1.456c-1.369.32-1.942,2.1-3.3,2.524a2.636,2.636,0,0,1-2.912-1.5,7.385,7.385,0,0,1-.553-3.475v-4a6.62,6.62,0,0,0-.942-4.16c-1.116-1.422-3.728-2.039-5.475-1.985a4.65,4.65,0,0,0-3.126,1.262,4.033,4.033,0,0,1-3.291,1.17,2.844,2.844,0,0,1-2.291-1.98c-.131-.515-.1-1.068-.247-1.578-.374-1.252-1.713-1.908-2.611-2.859a5.227,5.227,0,0,1-1.345-3.4,5.441,5.441,0,0,0,1.345,4.092c.9.971,2.238,1.607,2.611,2.859.151.485.116,1.063.248,1.578a2.844,2.844,0,0,0,2.291,1.98,4.033,4.033,0,0,0,3.291-1.17,4.65,4.65,0,0,1,3.126-1.262c1.747-.053,4.369.563,5.475,1.985a6.659,6.659,0,0,1,.942,4.16v4a7.346,7.346,0,0,0,.553,3.471,2.642,2.642,0,0,0,2.912,1.5c1.34-.427,1.942-2.2,3.3-2.524A2.452,2.452,0,0,1,892.926,279.448Z" transform="translate(-864.285 -257.3)"/><path d="M938.647,292.784a6.136,6.136,0,0,1-1.359,2.194l-5.271,6.334c-2.218,2.665-4.563,5.752-4.369,9.154.16-3.121,2.335-5.961,4.369-8.436l5.271-6.334a6.134,6.134,0,0,0,1.359-2.194,6.053,6.053,0,0,0,.141-1.752A4.611,4.611,0,0,1,938.647,292.784Z" transform="translate(-896.886 -275.028)"/><path d="M921.814,327.2a3.737,3.737,0,0,1-.16-.854,4.3,4.3,0,0,0,.16,1.573c.359,1.155,1.675,2.111,2.786,1.616a6.8,6.8,0,0,1-.058-.7A2.256,2.256,0,0,1,921.814,327.2Z" transform="translate(-893.8 -292.834)"/></g><path class="f" d="M812.69,789.36s1.67,2.912,7.718.349" transform="translate(-433.336 -415.989)"/><path class="f" d="M918,790.82s5.213,6.14,11.785,2.014" transform="translate(-487.529 -416.74)"/><path class="f" d="M945.225,641.23s-3.684,2.3-3.8,3.616,1.9-.971,1.9-.971Z" transform="translate(-499.581 -339.76)"/><path class="f" d="M945.248,677.59a7.7,7.7,0,0,1-4.538,1.772c-2.757.121-2.524,3.713-.723,2.636A45.17,45.17,0,0,0,945.248,677.59Z" transform="translate(-498.147 -358.471)"/><path class="f" d="M950.3,682.34s-1.767,8.684-3.2,7.009" transform="translate(-502.504 -360.915)"/><path class="u" d="M244.842,514.589s11.091,3.043,16.431-1,7.655-2.747,7.655-2.747,12.732-.7,13.78-3.713-4.883-13.94-4.883-13.94c-.422-.971-1.039-2.2-1.315-2.2l.058-4.611h0l1.844-19.294c4.257-10.916.078-25.022.078-25.022l-.762-3.5a8.854,8.854,0,0,1,.723-5.825l7.732-15.532a23.245,23.245,0,0,1,1.456-2.98c.485-.888,1.131-1.985,1.942-3.3.238-.379.485-.772.757-1.184.937-1.456,2.073-3.107,3.446-5.009,3.422-4.742,5.223-10.679,6.155-15.047l.413,1.369h.092l.112.024h.184l.2.034h.073l2.378,30.269c.146,11.8,4.48,18.338,4.48,18.338l-.6,26.061c.815,6.276-.971,14.644-1.791,17.984l-1.874,4.228a5.082,5.082,0,0,0-2.762,3.844c-.369,3.121-3.655,9.849-3.655,9.849-1.272,1.612-4.034,5.965-4.034,5.965s-1.3,4.2-.5,5.776,7.543,1.413,7.543,1.413c7.693,1.7,13.591-2.427,13.217-5.271s1.2-3.568,1.2-3.568c3.058-.971,2.762-3.043,2.762-3.043a19.047,19.047,0,0,0-2.315-12.4l-.485,1.121a17.071,17.071,0,0,1,.922-6.616l-.282.194-.087.053h-.029c.485-4.257,4.956-12.135,4.956-12.135,8.213-14.406,5.228-33.929,5.228-33.929l-1.272-6.087-.073-2.3a76.628,76.628,0,0,1,1.238-16.358c.442-2.388.9-5.271,1.247-8.451a74.691,74.691,0,0,1,4.213-16.586l.325-.058h.039c.447-.078.9-.155,1.354-.243h.087s.262-1.417.485-3.83c.131-1.539.238-3.49.238-5.732a64.5,64.5,0,0,0-3.063-19.954l.248-.354s.587-.8,1.66-2.175h0c1.971-2.5,5.038-6.31,8.82-10.6,6.771-7.723,4.781-15.533,4.781-15.533s-4.9-17.964-7.087-28.75a32.7,32.7,0,0,0-5.378-12.79,25.452,25.452,0,0,0,.68-5.184c.146-3.194.034-6.524-1.4-9.392s-4.495-5.135-7.689-4.752a2.941,2.941,0,0,1-1.379,0,2.1,2.1,0,0,1-.908-.791c-1.869-2.577-1.99-6.043-1.408-9.169s1.777-6.116,2.31-9.252.291-6.616-1.7-9.1c-2.344-2.912-6.431-3.733-9.48-5.922-2.141-1.539-3.747-3.747-6-5.111s-4.369-.845-6.82-.33c-4.121.869-8.038,1.267-11.936,3.039a31.789,31.789,0,0,0-10.4,7.567,9.873,9.873,0,0,0-2.32,3.66c-.971,3.208.927,6.626.529,9.946-.282,2.354-1.67,4.4-2.772,6.5s-1.942,4.6-1.078,6.8c1.359,3.437,5.791,4.165,9.014,5.995a2.752,2.752,0,0,1,1.068.927c.8,1.388-.83,2.83-1.854,4.063a6.121,6.121,0,0,0-1.213,2.466,8.8,8.8,0,0,0-5.276,6.368c-1.092,4.888.587,11.057,2.068,15.135-1.616,9.082.485,12.664,2.034,14.038a7.791,7.791,0,0,1,2.7,5.31v.17c.1,1.65.277,3.3.51,4.936h0c-.053-.383-.107-.791-.136-.971-1.267,2.344-3.679,8.334-5.038,18.411a55.33,55.33,0,0,1-1.228,6.412,35.065,35.065,0,0,0-1.029,11.465l.243,3.267a1.029,1.029,0,0,1-.66-.218l1.7,3.121v5.267a19.416,19.416,0,0,1-1.291,6.946c-.121.32-.252.641-.393.971a5.65,5.65,0,0,0-.573,2.859c-3.665,5.616-12.067,37.089-12.067,37.089-4.558,10.319.374,16.989.374,16.989s2.388,28.73,2.835,30.216,1.437,19,1.437,19h0v1.393a3.267,3.267,0,0,0-.83-.238c-3.995-.223-5.077,6.087-5.077,6.087l-8.174,7.805s-3.733-.631-9.222,3.49S244.842,514.589,244.842,514.589Zm81.619-166.048-.024-.087-.223.131h0l-.092.053-.044.029h0l-3.767-13.295a22.075,22.075,0,0,1-.277-10.936l2.912-12.756h0v-3.068l9.256,24.668C334.8,336.606,329.3,344.659,326.461,348.542Z" transform="translate(-138.38 -128.084)"/><path class="v" d="M395.429,557a76.443,76.443,0,0,0-4.689,17.814c-.345,3.145-.791,5.99-1.228,8.349a76.3,76.3,0,0,0-1.194,16.149l.073,2.267,1.213,6s2.912,19.285-5.131,33.492c0,0-4.767,8.509-4.912,12.538l-3.228,1.247-6.524-1.83s3.15-11.3,2.126-19.212l.587-25.726s-4.237-6.436-4.383-18.086l-2.49-31.968Z" transform="translate(-203.285 -296.414)"/><path class="v" d="M321.034,547.62s-.8,12.465-6.965,21.056S306.594,581,306.594,581L299,596.344a8.79,8.79,0,0,0-.714,5.742l.748,3.456s4.106,13.931-.073,24.711l-1.98,20.823H285.4s-.971-17.3-1.393-18.77-2.786-29.842-2.786-29.842-4.854-6.6-.369-16.79c0,0,10.12-38.128,12.829-37.467S321.034,547.62,321.034,547.62Z" transform="translate(-158.67 -291.587)"/><g class="n" transform="translate(137.139 256.033)"><path d="M315.733,605.566l-.743-3.456a8.738,8.738,0,0,1,.709-5.767l7.592-15.363s1.315-3.738,7.475-12.319c5.917-8.252,6.893-20.076,6.961-20.983l1.18-.058s-.8,12.465-6.965,21.056S324.465,581,324.465,581l-7.591,15.348a8.79,8.79,0,0,0-.714,5.742l.747,3.456s4.106,13.931-.073,24.711l-1.98,20.823H313.68l1.98-20.823C319.84,619.473,315.733,605.566,315.733,605.566Z" transform="translate(-313.68 -547.62)"/></g><path class="f" d="M389.012,653.627c.146-4.029,4.912-12.538,4.912-12.538,8.067-14.222,5.131-33.492,5.131-33.492l-1.243-6.009-.073-2.267a76.293,76.293,0,0,1,1.194-16.149c.432-2.359.879-5.2,1.223-8.349a76.429,76.429,0,0,1,4.674-17.775l1.2-.049a76.445,76.445,0,0,0-4.689,17.814c-.345,3.145-.791,5.99-1.228,8.349a76.3,76.3,0,0,0-1.194,16.149l.073,2.267,1.213,6s2.912,19.285-5.131,33.492c0,0-4.767,8.509-4.912,12.538l-3.228,1.247-.68-.189Z" transform="translate(-213.891 -296.414)"/><path class="w" d="M376.367,753.768a5.611,5.611,0,0,0,5.339-.66,17.232,17.232,0,0,0-.437,9.679c1.32,5.281-12.319-4.252-12.319-4.252l2.912-6.655S372.993,753.987,376.367,753.768Z" transform="translate(-204.983 -396.701)"/><path class="f" d="M377.392,754.049a5.45,5.45,0,0,0,4.335-.971,17.231,17.231,0,0,0-.437,9.679c1.32,5.281-12.319-4.252-12.319-4.252l2.912-6.655a4.161,4.161,0,0,0,3.325,1.874C375.96,753.811,376.678,753.913,377.392,754.049Z" transform="translate(-204.994 -396.686)"/><path class="v" d="M289.32,446.409h5.7V414.077l-4.276-.767Z" transform="translate(-148.88 -212.695)"/><path class="s" d="M289.32,446.409h5.7V414.077l-4.276-.767Z" transform="translate(-148.88 -212.695)"/><path class="x" d="M362.6,760.3a5.681,5.681,0,0,1,5.2,3l1.98,1.539.971-2.272a18.931,18.931,0,0,1,2.243,12.247s.291,2.048-2.713,3c0,0-1.539.733-1.175,3.519s-5.422,6.893-12.975,5.2c0,0-6.6.15-7.407-1.393s.515-5.645.515-5.645,2.713-4.3,3.956-5.888c0,0,3.228-6.65,3.6-9.708S360.689,758.606,362.6,760.3Z" transform="translate(-194.441 -400.733)"/><path class="w" d="M303.383,761.405l.058-4.558s-6.558,1.888-11.868-.248c0,0,.447,4.582-.291,5.208s2.456,6.524,2.456,6.524l3.568,3.738,6.135-2.233,1.665-5.242S303.82,761.405,303.383,761.405Z" transform="translate(-164.958 -399.13)"/><path class="f" d="M303.383,761.405l.058-4.558s-6.558,1.888-11.868-.248c0,0,.447,4.582-.291,5.208s2.456,6.524,2.456,6.524l3.568,3.738,6.135-2.233,1.665-5.242S303.82,761.405,303.383,761.405Z" transform="translate(-164.958 -399.13)"/><path class="x" d="M265.332,763.094s3.485.4,3.043,4.854.184,0,.184,0,3.7,1.5,5.024,3.592,3.7-1.869,3.883-3,1.665-1.607,1.665-1.607,5.825,10.8,4.8,13.771-13.533,3.655-13.533,3.655-2.276-1.281-7.519,2.713-16.13.971-16.13.971-8.873-3.7-3.48-7.766,9.053-3.446,9.053-3.446l8.028-7.737S261.411,762.87,265.332,763.094Z" transform="translate(-139.411 -402.469)"/><path class="y" d="M339.731,236.165c2.218,1.345,3.8,3.529,5.9,5.048,2.99,2.16,7,2.966,9.3,5.849,1.942,2.456,2.194,5.888,1.67,8.985s-1.7,6.053-2.267,9.14-.451,6.509,1.383,9.053a2.053,2.053,0,0,0,.888.781,2.913,2.913,0,0,0,1.354,0c3.136-.379,6.145,1.864,7.553,4.694s1.519,6.121,1.374,9.276a19.171,19.171,0,0,1-1.548,7.558c-1.942,3.961-5.98,6.407-9.965,8.281a77.171,77.171,0,0,1-7.956,3.213,11.973,11.973,0,0,1-5.766.869c-3.315-.573-5.665-3.587-8.81-4.767-2.577-.971-5.436-.621-8.179-.379-2.34.2-5.014.2-6.626-1.51-2.068-2.194-1.136-5.732-.078-8.557a6.092,6.092,0,0,1-4.31-9.96c1-1.218,2.6-2.641,1.815-4.014a2.66,2.66,0,0,0-1.048-.913c-3.16-1.806-7.514-2.529-8.844-5.917-.854-2.179-.029-4.645,1.053-6.718s2.427-4.1,2.723-6.422c.388-3.281-1.456-6.655-.519-9.819a9.843,9.843,0,0,1,2.276-3.621,31.24,31.24,0,0,1,10.193-7.47c3.83-1.752,7.669-2.145,11.717-3C335.445,235.33,337.455,234.786,339.731,236.165Z" transform="translate(-172.188 -130.861)"/><path class="v" d="M320.139,337.754s-9.286-.485-11.043,7.431,3.81,19.255,3.81,19.255Z" transform="translate(-174.006 -183.586)"/><path class="s" d="M320.139,337.754s-9.286-.485-11.043,7.431,3.81,19.255,3.81,19.255Z" transform="translate(-174.006 -183.586)"/><path class="v" d="M320,340.966l3.519,2.786,16.421.733,10.251-7.038,10.426-17.892a12.89,12.89,0,0,1-9.912-10.145,22.211,22.211,0,0,1-.2-8.475s-16.717-8.655-14.664,4.854a18.348,18.348,0,0,1,.155,5.019c-.971,7.912-8.65,6.422-8.65,6.422l-2.946,4.543-3.374,11.164Z" transform="translate(-179.794 -163.237)"/><path class="f" d="M352.475,305.766a18.346,18.346,0,0,1,.155,5.019,14.819,14.819,0,0,0,14.712-1.379,22.211,22.211,0,0,1-.2-8.475S350.422,292.277,352.475,305.766Z" transform="translate(-196.415 -163.233)"/><circle class="v" cx="14.809" cy="14.809" r="14.809" transform="translate(147.565 118.686)"/><path class="g" d="M327.837,358.022c.359,0,.714.053,1.068.087,1.942.194,10.052.631,14.673-4.888,5.169-6.174,12.052-13.8,12.334-14.11l7,2.116s-5.543-1.971-9.222,8.339a10.679,10.679,0,0,0,3.606,12.285,11.1,11.1,0,0,0,4.582,1.942.024.024,0,0,1,0,.024v4.524h0l-2.864,12.62a21.876,21.876,0,0,0,.272,10.8l4.368,15.44c-.66.456-27.764,18.891-45.87,6.16h0c.068-.553,2.306-18.673.752-27.541a61.234,61.234,0,0,1-.811-6.854c0-.058,0-.112,0-.17a7.727,7.727,0,0,0-2.655-5.242c-1.631-1.456-3.839-5.339-1.655-15.6a37.7,37.7,0,0,1,2.427-7.393l6.072-13.722h0l5.6.112v.039c-.485.6-6.975,8.708-7.679,13.931C319.149,355.887,318.3,357.411,327.837,358.022Z" transform="translate(-175.938 -183.118)"/><path class="v" d="M397.262,348.053s5.475,4.694,7.626,15.348,6.941,28.352,6.941,28.352,1.942,7.723-4.694,15.348-11.048,13.591-11.048,13.591l-4.368,6.436a5.48,5.48,0,0,1-3.145,2.223,10.624,10.624,0,0,1-7.7-.548,4.485,4.485,0,0,1-1.942-5.665l.971-2.247s-8.994,5.669-9.776,2.539,10.46-6.257,10.46-6.257,9.286-1.563,11.164-5.961c0,0,9.97-12.809,9.188-17.207l-9.63-25.808s-12.043-1.592-7.936-15.12S397.262,348.053,397.262,348.053Z" transform="translate(-205.57 -187.531)"/><path class="q" d="M307.352,512.9s22,4.4,27.182,3.81l.558,1.859s8.349,1.869,27.226-1.126q1.849-.291,3.839-.655l.442-.078s.257-1.4.461-3.781a65.573,65.573,0,0,0-3.2-26.619l-3.174-9.776s-19.62,11.761-32.609,10.679c-1.16-.1-2.31-.189-3.471-.228-2.665-.1-6.8,0-9.48-2.15l-5.631.971v16.018a19.193,19.193,0,0,1-1.272,6.854c-.121.32-.248.636-.388.971A5.1,5.1,0,0,0,307.352,512.9Z" transform="translate(-173.243 -255.004)"/><path class="f" d="M364.58,552.165v4.985s9.611,2.15,31.507-1.859c0,0,.257-1.4.461-3.781C389.83,552.588,371.3,555.18,364.58,552.165Z" transform="translate(-202.735 -293.589)"/><path class="f" d="M307.355,546.993s22,4.4,27.182,3.81l.558,1.859v-4.985c-2.5,1.039-20.386-3.272-26.866-4.888-.121.32-.248.636-.388.971a5.1,5.1,0,0,0-.485,3.233Z" transform="translate(-173.245 -289.102)"/><path class="q" d="M417.31,536.686l1.631,10.116q1.849-.291,3.839-.655c-.51-2.956-1.621-9.708-1.315-10.829l-2.053-1.757Z" transform="translate(-229.87 -284.352)"/><path class="f" d="M417.78,536.236l1.631,10.12q1.849-.3,3.839-.655c-.51-2.956-1.621-9.708-1.315-10.829l-2.053-1.762Z" transform="translate(-230.112 -284.12)"/><g class="z" transform="translate(140.94 221.512)"><path d="M334.227,496c-1.155-.1-2.31-.189-3.471-.228-2.592-.1-6.548,0-9.247-1.985l.942-.165c2.7,2.141,6.8,2.048,9.48,2.15,1.16.039,2.31.131,3.471.228.379.034.767.053,1.16.063A21.769,21.769,0,0,1,334.227,496Z" transform="translate(-321.51 -485.31)"/><path d="M398.5,517.423q1.849-.291,3.839-.65l.447-.083s.257-1.4.456-3.781a65.4,65.4,0,0,0-3.2-26.619l-2.99-9.222c.636-.359.971-.568.971-.568l3.174,9.776a65.573,65.573,0,0,1,3.2,26.619c-.2,2.383-.461,3.781-.461,3.781l-.442.083q-1.985.359-3.839.65a120.9,120.9,0,0,1-19.78,1.7A124.74,124.74,0,0,0,398.5,517.423Z" transform="translate(-351.548 -476.5)"/><path d="M360.331,559.3v.053H359.7Q360.059,559.329,360.331,559.3Z" transform="translate(-341.163 -519.11)"/></g><ellipse class="w" cx="0.83" cy="1.709" rx="0.83" ry="1.709" transform="translate(189.342 250.805)"/><path class="v" d="M311.35,449.818c1.34-9.951,3.7-15.863,4.951-18.178.049.316.175,1.34.233,1.655a48.055,48.055,0,0,1,.107,5.14l-1.243,22.5,1.665,7.038c1.563,5.572-4.228,1.17-4.228,1.17a3.446,3.446,0,0,1-3.4,2.349l-.3-4.038a34.881,34.881,0,0,1,1.01-11.324A53.959,53.959,0,0,0,311.35,449.818Z" transform="translate(-174.153 -231.903)"/><path class="s" d="M311.35,449.818c1.34-9.951,3.7-15.863,4.951-18.178.049.316.175,1.34.233,1.655a48.055,48.055,0,0,1,.107,5.14l-1.243,22.5,1.665,7.038c1.563,5.572-4.228,1.17-4.228,1.17a3.446,3.446,0,0,1-3.4,2.349l-.3-4.038a34.881,34.881,0,0,1,1.01-11.324A53.959,53.959,0,0,0,311.35,449.818Z" transform="translate(-174.153 -231.903)"/><path class="v" d="M399.288,483.53c-1.053,1.364-1.631,2.145-1.631,2.145l-4.369,6.431a5.456,5.456,0,0,1-3.145,2.223,10.6,10.6,0,0,1-7.7-.549,4.475,4.475,0,0,1-1.942-5.66l.971-2.252s-8.994,5.669-9.776,2.543,10.46-6.257,10.46-6.257,9.286-1.563,11.164-5.965c0,0,.811-1.039,1.942-2.631" transform="translate(-206.378 -253.476)"/><path class="q" d="M400.827,508.766s-10.635-1.034-14-7.116l-1.544,5.024s11.164,7.708,13.712,6.708Z" transform="translate(-213.387 -267.931)"/><path class="f" d="M400.052,508.661s-10.63-1.034-14-7.121l-1.539,5.009s11.164,7.708,13.707,6.708Z" transform="translate(-212.991 -267.874)"/><path class="q" d="M312.856,510.46s-3.723,1.32-4.456.587l1.675,3.082,3.165-2.427Z" transform="translate(-173.824 -272.465)"/><path class="f" d="M312.856,510.46s-3.723,1.32-4.456.587l1.675,3.082,3.165-2.427Z" transform="translate(-173.824 -272.465)"/><path class="f" d="M331.8,525.9V519.47l-1.529,6.587Z" transform="translate(-169.954 -267.325)"/><path class="f" d="M360.032,264.294a5.712,5.712,0,0,1-3.99,2.1,31.441,31.441,0,0,1-4.635,0,11.626,11.626,0,0,0-6.995,1.762,17.785,17.785,0,0,0-3.208,3.4c-3,3.665-7.164,7.1-11.892,6.713a3.082,3.082,0,0,1-2.209-.932,3.543,3.543,0,0,1-.563-2.009,45.932,45.932,0,0,1,.286-9.057,19.1,19.1,0,0,1,1.369-5.4,18.444,18.444,0,0,1,3.291-4.7,20.129,20.129,0,0,1,5.742-4.6,10.3,10.3,0,0,1,7.184-.927c2.83.772,5.034,2.985,7.732,4.126C355.227,256.062,363.41,259.523,360.032,264.294Z" transform="translate(-183.106 -138.618)"/><path class="y" d="M360.032,263.079a5.712,5.712,0,0,1-3.99,2.1,31.437,31.437,0,0,1-4.635,0,11.589,11.589,0,0,0-6.994,1.757,17.782,17.782,0,0,0-3.208,3.4c-3,3.665-7.164,7.1-11.892,6.713a3.063,3.063,0,0,1-2.209-.932,3.529,3.529,0,0,1-.563-2.01,45.934,45.934,0,0,1,.286-9.057,19.1,19.1,0,0,1,1.369-5.4,18.319,18.319,0,0,1,3.291-4.694,20.061,20.061,0,0,1,5.742-4.606,10.3,10.3,0,0,1,7.184-.927c2.83.772,5.034,2.985,7.732,4.126C355.227,254.847,363.41,258.3,360.032,263.079Z" transform="translate(-183.106 -137.991)"/><path class="v" d="M291.837,473.47l-.039,1.772-.4-1.694Z" transform="translate(-149.951 -243.653)"/><path class="s" d="M291.837,473.47l-.039,1.772-.4-1.694Z" transform="translate(-149.951 -243.653)"/><g class="z" transform="translate(176.7 158.299)"><path d="M397.8,352.59c-4.111,13.528,7.873,15.115,7.873,15.115l9.63,25.808c.781,4.4-9.193,17.207-9.193,17.207-.694,1.641-2.427,2.888-4.32,3.81a6.766,6.766,0,0,0,2.563-2.815s9.97-12.8,9.188-17.2l-9.63-25.813s-11.979-1.587-7.873-15.115c1.374-4.519,3.4-6.577,5.446-7.315C400.075,347.406,398.779,349.372,397.8,352.59Z" transform="translate(-395.184 -346.27)"/></g><g class="n" transform="translate(136.604 153.717)"><path d="M401,384.61a10.115,10.115,0,0,0,1.942,1.84,11.032,11.032,0,0,0,4.582,1.942v.51a11,11,0,0,1-4.155-1.84A10.072,10.072,0,0,1,401,384.61Z" transform="translate(-358.08 -361.418)"/><path d="M322.443,419.967v.17a62.7,62.7,0,0,0,.835,6.878c1.456,8.368-.451,24.983-.723,27.279-.155-.1-.311-.2-.485-.311.073-.553,2.31-18.673.757-27.536a61.51,61.51,0,0,1-.811-6.854v-.17a7.489,7.489,0,0,0-1.306-3.713,7.548,7.548,0,0,1,1.733,4.257Z" transform="translate(-316.762 -377.422)"/><path d="M327.194,337.495l-4.747-.092a.024.024,0,0,0-.024,0l-6.067,13.717a37.815,37.815,0,0,0-2.427,7.393c-1.767,8.3-.655,12.436.694,14.479-1.519-1.791-3.087-5.873-1.131-15.047a37.422,37.422,0,0,1,2.4-7.4L322,336.83h0l5.6.112v.034C327.558,337.034,327.407,337.218,327.194,337.495Z" transform="translate(-312.577 -336.83)"/><path d="M416.39,345.87l.083.024Z" transform="translate(-366 -341.482)"/><path d="M369.393,343.569l-4.757-1.432h-.024c-.281.311-7.16,7.936-12.329,14.11-4.621,5.519-12.722,5.087-14.673,4.893-.354-.039-.714-.068-1.068-.092-5.305-.34-7.393-.971-8.091-2.31,1,.971,3.184,1.456,7.65,1.728.359,0,.714.053,1.068.087,1.942.194,10.052.626,14.673-4.888,5.169-6.179,12.052-13.8,12.334-14.115h0l6.922,2.1A4.324,4.324,0,0,0,369.393,343.569Z" transform="translate(-320.746 -339.259)"/></g><path class="f" d="M288.294,776.524s-6.7,1.83-7.994-1.044" transform="translate(-159.364 -408.846)"/><path class="f" d="M374.242,773.637s-7.766,2-9.562-1.1" transform="translate(-202.786 -407.333)"/><path class="aa" d="M559.44,751.411c.112-.971.272-1.942.446-2.912a20.3,20.3,0,0,0-.971-9.844h0c-.18-.51-.311-.8-.311-.8-3.092-.845-15.28,8.611-19.721,12.174-1.539,0-3.208.068-5.033.189-.8.058-1.592.078-2.388.063h-2.912c-4.121-3.32-16.877-13.3-20.052-12.441,0,0-.131.286-.311.8h0a19.946,19.946,0,0,0-1,9.844c.175.971.335,1.942.447,2.912.238,2.131,1.131,6.223,4.369,8.985.694,5.048,3.291,11.683,5.291,15.712a11.249,11.249,0,0,0,.68,2.218c-.825,3.184-1.777,7.339-1.5,8.737,0,0-4.31-1.044-4.747,4.145v.16c-1.558.713-3.5,2.349-1.315,5.776a2.247,2.247,0,0,0,1.126.917c.388.136.767.136.728-.408l2.694,3.034s4.883.563,4.941-2.272l.286.044c.655.1,1.34.18,2.043.252l.34,1.121S518.9,799.741,519.9,802c0,0,.922.854,1.238.544,0,0-.485,1.48,1.427,1.48,0,0,2.053,1.087,2.854.311s2.461-1.942,2.616-2.427c.044-.131.063-1.281.073-2.873h.315c4.092.1,8.436-.034,12.387-.248h.32c0,1.723.024,2.995.068,3.131.16.485,1.825,1.636,2.621,2.427s2.849-.311,2.849-.311c1.9,0,1.427-1.48,1.427-1.48.32.311,1.243-.544,1.243-.544,1-2.257-2.67-2.179-2.67-2.179l.437-1.456,2.024-.17.32-.029c-.194,3.082,4.936,2.49,4.936,2.49l2.7-3.034c-.044.544.335.544.723.408a2.228,2.228,0,0,0,1.092-.927c3.306-5.169-2.8-6.266-2.8-6.266a3,3,0,0,0-.578-.092,1,1,0,0,1,.024-.267h0a10.65,10.65,0,0,0,.039-2.048,4.506,4.506,0,0,0-3.635-2.645c-1.243-.155-1.267-5.864-1.141-9.819a11.3,11.3,0,0,0,.194-2.252,11.88,11.88,0,0,0-.485-3.606c2.427-4.116,4.369-8.431,4.587-9.708A14.122,14.122,0,0,0,559.44,751.411Z" transform="translate(-275.994 -389.451)"/><path class="g" d="M560.578,828.019h0c-.194,2.689-.714,7-.714,7s-2.16.262-5.5.563l-2.267.194c-1.738.141-3.689.277-5.752.393-3.81.209-7.994.34-11.941.243-1.971-.044-3.883-.146-5.655-.32-.791-.078-1.558-.17-2.286-.277-4.524-.675-7.766-1.966-8.043-4.233a13.1,13.1,0,0,1-.1-2.912c.422-5.1,4.572-4.068,4.572-4.068-.267-1.408.738-5.781,1.553-8.946.515-1.995.971-3.509.971-3.509L554.6,810.21h.1a1.427,1.427,0,0,1,1.427,1.5c-.175,3.5-.422,11.513,1.01,11.693a4.4,4.4,0,0,1,3.509,2.6A10.89,10.89,0,0,1,560.578,828.019Z" transform="translate(-281.831 -426.719)"/><path class="g" d="M530.942,753.661s-11,13.246-16.3,9.577c-.126-.087-.247-.175-.364-.267-3.563-2.7-4.5-7.048-4.747-9.256-.107-.971-.262-1.908-.432-2.854a19.818,19.818,0,0,1,.971-9.664h0c.175-.485.3-.782.3-.782C514.026,739.4,530.942,753.661,530.942,753.661Z" transform="translate(-276.979 -390.774)"/><path class="g" d="M525,755.768s-3.466,2.427-8.354,6.417a17.66,17.66,0,0,1-2.427,1.67c-3.563-2.7-4.5-7.048-4.747-9.256-.107-.971-.262-1.908-.432-2.854a19.819,19.819,0,0,1,.971-9.664h0C516.869,742.556,525,755.768,525,755.768Z" transform="translate(-276.954 -391.658)"/><path class="ab" d="M525,755.768s-3.466,2.427-8.354,6.417a17.66,17.66,0,0,1-2.427,1.67c-3.563-2.7-4.5-7.048-4.747-9.256-.107-.971-.262-1.908-.432-2.854a19.819,19.819,0,0,1,.971-9.664h0C516.869,742.556,525,755.768,525,755.768Z" transform="translate(-276.954 -391.658)"/><path class="f" d="M525.28,759.845s-1.849,1.306-4.461,3.427a9.4,9.4,0,0,1-1.281.888A7.145,7.145,0,0,1,517,759.224c-.053-.514-.136-1.019-.228-1.529a10.61,10.61,0,0,1,.539-5.155h0C520.94,752.792,525.28,759.845,525.28,759.845Z" transform="translate(-281.001 -397.041)"/><path class="g" d="M569.05,753.661s11,13.246,16.3,9.577c.121-.087.248-.175.364-.267,3.563-2.7,4.5-7.048,4.747-9.256.107-.971.262-1.908.427-2.854a19.759,19.759,0,0,0-.971-9.664h0c-.175-.485-.3-.782-.3-.782C585.966,739.4,569.05,753.661,569.05,753.661Z" transform="translate(-307.957 -390.774)"/><path class="g" d="M581.22,755.768s3.471,2.427,8.358,6.417a17.661,17.661,0,0,0,2.4,1.67c3.563-2.7,4.5-7.048,4.747-9.256.107-.971.262-1.908.427-2.854a19.76,19.76,0,0,0-.971-9.664h0C589.365,742.556,581.22,755.768,581.22,755.768Z" transform="translate(-314.22 -391.658)"/><path class="ab" d="M581.22,755.768s3.471,2.427,8.358,6.417a17.661,17.661,0,0,0,2.4,1.67c3.563-2.7,4.5-7.048,4.747-9.256.107-.971.262-1.908.427-2.854a19.76,19.76,0,0,0-.971-9.664h0C589.365,742.556,581.22,755.768,581.22,755.768Z" transform="translate(-314.22 -391.658)"/><path class="f" d="M589.05,759.861s1.84,1.3,4.432,3.4a8.894,8.894,0,0,0,1.277.883,7.169,7.169,0,0,0,2.519-4.907c.053-.485.136-1.014.228-1.519a10.63,10.63,0,0,0-.51-5.126h0C593.365,752.852,589.05,759.861,589.05,759.861Z" transform="translate(-318.249 -397.067)"/><path class="f" d="M561.123,810.23a26.354,26.354,0,0,1-4.213,5.368c-4.369,3.883-23.231,2.34-24.454,2.141-.257-.044-.791-.806-1.456-2.044.514-1.995.971-3.509.971-3.509Z" transform="translate(-288.376 -426.729)"/><path class="g" d="M539.8,765.268c-.767.053-1.534.073-2.306.058-3.937-.068-17.2.107-18.668,5.461-1.733,6.31,6.014,23.207,7.232,23.41s20.076,1.733,24.459-2.141,10.086-16.018,9.781-17.12C560.3,774.937,565.732,763.472,539.8,765.268Z" transform="translate(-281.98 -403.492)"/><path class="f" d="M545.055,786.46a13.924,13.924,0,0,0-14.261,8.057,11.649,11.649,0,0,0,.859,11.742c1.514,2.131,3.737,3.718,6.829,2.427C545.356,805.856,545.055,786.46,545.055,786.46Z" transform="translate(-287.656 -414.453)"/><path class="f" d="M544.425,785.2a13.924,13.924,0,0,0-14.261,8.057A11.649,11.649,0,0,0,531.023,805c1.514,2.131,3.737,3.718,6.829,2.427C544.726,804.6,544.425,785.2,544.425,785.2Z" transform="translate(-287.331 -413.804)"/><path class="g" d="M544.425,785.83a13.924,13.924,0,0,0-14.261,8.057,11.649,11.649,0,0,0,.859,11.742c1.514,2.131,3.737,3.718,6.829,2.427C544.726,805.226,544.425,785.83,544.425,785.83Z" transform="translate(-287.331 -414.129)"/><path class="ab" d="M544.425,785.83a13.924,13.924,0,0,0-14.261,8.057,11.649,11.649,0,0,0,.859,11.742c1.514,2.131,3.737,3.718,6.829,2.427C544.726,805.226,544.425,785.83,544.425,785.83Z" transform="translate(-287.331 -414.129)"/><path class="ac" d="M538.252,803.13s-1.325,1.223-.815,1.529S538.252,803.13,538.252,803.13Z" transform="translate(-291.628 -423.075)"/><path class="ac" d="M541.763,806.35s-.723,1.6-.209,1.772.82-1.146.82-1.146Z" transform="translate(-293.712 -424.732)"/><path class="ac" d="M535.256,811.32s-.709,1.883,0,1.883S535.256,811.32,535.256,811.32Z" transform="translate(-290.404 -427.29)"/><path class="ad" d="M533.78,821.71s1.417,3.621,5.106,3.364" transform="translate(-289.806 -432.636)"/><path class="ad" d="M540.61,823.91a2.554,2.554,0,0,0,3.053.408" transform="translate(-293.321 -433.769)"/><path class="f" d="M564,786.46a13.924,13.924,0,0,1,14.261,8.057,11.649,11.649,0,0,1-.859,11.742c-1.51,2.131-3.738,3.718-6.829,2.427C563.677,805.856,564,786.46,564,786.46Z" transform="translate(-305.356 -414.453)"/><path class="f" d="M564.588,785.2a13.924,13.924,0,0,1,14.261,8.057A11.649,11.649,0,0,1,577.99,805c-1.51,2.131-3.737,3.718-6.829,2.427C564.3,804.6,564.588,785.2,564.588,785.2Z" transform="translate(-305.66 -413.804)"/><path class="g" d="M564.588,785.83a13.924,13.924,0,0,1,14.261,8.057,11.65,11.65,0,0,1-.859,11.742c-1.51,2.131-3.737,3.718-6.829,2.427C564.3,805.226,564.588,785.83,564.588,785.83Z" transform="translate(-305.66 -414.129)"/><path class="ab" d="M564.588,785.83a13.924,13.924,0,0,1,14.261,8.057,11.65,11.65,0,0,1-.859,11.742c-1.51,2.131-3.737,3.718-6.829,2.427C564.3,805.226,564.588,785.83,564.588,785.83Z" transform="translate(-305.66 -414.129)"/><path class="ac" d="M586.16,803.13s1.325,1.223.815,1.529S586.16,803.13,586.16,803.13Z" transform="translate(-316.762 -423.075)"/><path class="ac" d="M582.572,806.35s.723,1.6.209,1.772-.82-1.146-.82-1.146Z" transform="translate(-314.6 -424.732)"/><path class="ac" d="M589.488,811.32s.7,1.883,0,1.883S589.488,811.32,589.488,811.32Z" transform="translate(-318.314 -427.29)"/><path class="ad" d="M586.206,821.71s-1.417,3.621-5.106,3.364" transform="translate(-314.158 -432.636)"/><path class="ad" d="M581.558,823.91a2.56,2.56,0,0,1-3.058.408" transform="translate(-312.82 -433.769)"/><path class="ac" d="M553.2,841.89c.257-.049,5.1-2.141,10.086,0Z" transform="translate(-299.8 -442.526)"/><path class="f" d="M526.464,854.65c-4.524-.675-7.766-1.966-8.043-4.233a13.1,13.1,0,0,1-.1-2.912,6.532,6.532,0,0,1,1.728-.631c.82-.228,1.835-.073,3.975.539s1.985,3.131,2.427,6.417A2.716,2.716,0,0,1,526.464,854.65Z" transform="translate(-281.831 -445.535)"/><path class="g" d="M517.427,847.528s-5.883,1.078-2.7,6.155a2.17,2.17,0,0,0,1.087.9c.374.131.733.131.694-.4l2.6,2.98s5.194.612,4.737-2.674-.306-5.825-2.427-6.417S518.257,847.3,517.427,847.528Z" transform="translate(-279.516 -445.873)"/><path class="ad" d="M524.18,854.67s1.247,2.849,2.98.456" transform="translate(-284.866 -449.598)"/><path class="ad" d="M518.28,857s.646,2.7,3.092.689" transform="translate(-281.83 -450.797)"/><path class="f" d="M598.818,846.848h0c-.194,2.689-.713,7-.713,7s-2.16.262-5.5.563a2.817,2.817,0,0,1,0-.563c.456-3.286.306-5.825,2.427-6.417C597.022,846.9,598.036,846.7,598.818,846.848Z" transform="translate(-320.071 -445.548)"/><path class="g" d="M599.686,847.528s5.888,1.078,2.7,6.155a2.19,2.19,0,0,1-1.087.9c-.374.131-.738.131-.7-.4l-2.6,2.98s-5.2.612-4.737-2.674.306-5.825,2.427-6.417S598.871,847.3,599.686,847.528Z" transform="translate(-320.405 -445.873)"/><path class="ad" d="M600.48,854.67s-1.252,2.849-2.98.456" transform="translate(-322.597 -449.598)"/><path class="ad" d="M606.257,857s-.65,2.7-3.1.689" transform="translate(-325.51 -450.797)"/><path class="f" d="M543.467,852.551c-1.971-.044-3.883-.146-5.655-.32L536.05,846.3a3.852,3.852,0,0,1-.16-1.082,3.776,3.776,0,0,1,7.548-.024C543.457,847.5,543.477,850.429,543.467,852.551Z" transform="translate(-290.892 -442.853)"/><path class="g" d="M534.893,846.164l2.078,7s-3.534-.078-2.568,2.141c0,0,.888.84,1.194.534,0,0-.461,1.456,1.374,1.456,0,0,1.98,1.073,2.747.306s2.374-1.912,2.529-2.369c.1-.3.068-6.155.034-10.193a3.767,3.767,0,0,0-3.772-3.738h0a3.771,3.771,0,0,0-3.616,4.864Z" transform="translate(-290.041 -442.718)"/><path class="ad" d="M540.346,869.47s-1.544,1.456-.728,2.315" transform="translate(-292.688 -457.214)"/><path class="ad" d="M538.487,867.56a2.1,2.1,0,0,0-1.427,1.791" transform="translate(-291.494 -456.231)"/><path class="f" d="M583.7,845.079a3.837,3.837,0,0,1-.155,1.082l-1.646,5.616c-1.738.141-3.689.277-5.752.393,0-2.1,0-4.888.034-7.116a3.772,3.772,0,0,1,7.543.024Z" transform="translate(-311.61 -442.715)"/><path class="g" d="M584.139,846.164l-2.078,7s3.539-.078,2.573,2.141c0,0-.888.84-1.194.534,0,0,.456,1.456-1.378,1.456,0,0-1.98,1.073-2.747.306s-2.369-1.912-2.524-2.369c-.1-.3-.068-6.155-.034-10.193a3.767,3.767,0,0,1,3.771-3.738h0a3.771,3.771,0,0,1,3.611,4.864Z" transform="translate(-311.906 -442.718)"/><path class="ad" d="M586.23,869.47s1.544,1.456.728,2.315" transform="translate(-316.798 -457.214)"/><path class="ad" d="M587.63,867.56a2.1,2.1,0,0,1,1.427,1.791" transform="translate(-317.518 -456.231)"/><path class="f" d="M552.953,782.769s-7.189-.228-7.417,5.339,11.232,3.208,11.232,3.208,4.815-.646,3.975-4.029S558.152,783.074,552.953,782.769Z" transform="translate(-295.855 -412.596)"/><path class="f" d="M552.953,781.509s-7.189-.228-7.417,5.339,11.232,3.208,11.232,3.208,4.815-.646,3.975-4.029S558.152,781.814,552.953,781.509Z" transform="translate(-295.855 -411.948)"/><path class="ac" d="M552.953,782.139s-7.189-.228-7.417,5.339,11.232,3.208,11.232,3.208,4.815-.646,3.975-4.029S558.152,782.444,552.953,782.139Z" transform="translate(-295.855 -412.272)"/><path class="f" d="M527.78,839.92s2.427.864,2.912,2.519" transform="translate(-286.719 -442.007)"/><path class="f" d="M596.575,837.4s-1.723.723-1.6,3.742" transform="translate(-321.294 -440.711)"/><ellipse class="g" cx="1.125" cy="1.865" rx="1.125" ry="1.865" transform="translate(240.177 409.474) rotate(-29.887)"/><ellipse class="g" cx="1.859" cy="1.121" rx="1.859" ry="1.121" transform="translate(274.34 409.913) rotate(-60)"/><ellipse class="ab" cx="1.125" cy="1.865" rx="1.125" ry="1.865" transform="translate(240.177 409.474) rotate(-29.887)"/><ellipse class="ab" cx="1.859" cy="1.121" rx="1.859" ry="1.121" transform="translate(274.34 409.913) rotate(-60)"/><ellipse class="a" cx="13.072" cy="2.209" rx="13.072" ry="2.209" transform="translate(80.42 345.359)"/><ellipse class="a" cx="13.072" cy="2.209" rx="13.072" ry="2.209" transform="translate(28.925 376.681)"/><ellipse class="g" cx="19.518" cy="3.301" rx="19.518" ry="3.301" transform="translate(8.87 347.568)"/><path class="g" d="M70.96,722.344a5.646,5.646,0,0,1-1.864-2.806,2.5,2.5,0,0,1,1.3-2.859c1.194-.456,2.471.369,3.437,1.2s2.077,1.791,3.344,1.616a5.092,5.092,0,0,1-1.573-4.767,1.942,1.942,0,0,1,.437-.971c.66-.709,1.864-.4,2.66.155,2.519,1.777,3.228,5.2,3.238,8.291a15.291,15.291,0,0,0,.049-3.4,3.5,3.5,0,0,1,1.281-3.019,3.883,3.883,0,0,1,1.942-.485,4.061,4.061,0,0,1,3.174.9,3.122,3.122,0,0,1-.126,3.883,12.692,12.692,0,0,1-3.281,2.631,7.242,7.242,0,0,0-2.349,2.238,2.289,2.289,0,0,0-.175.4H75.363a19.633,19.633,0,0,1-4.4-3.014Z" transform="translate(-50.645 -376.873)"/><ellipse class="a" cx="13.072" cy="2.209" rx="13.072" ry="2.209" transform="translate(486.805 363.833)"/><path class="ae" d="M1042.91,748.839s7.456-.228,9.708-1.83,11.465-3.509,12.023-.942,11.208,12.761,2.786,12.829-19.557-1.311-21.8-2.679S1042.91,748.839,1042.91,748.839Z" transform="translate(-551.809 -393.064)"/><path class="af" d="M1067.573,762.274c-8.417.068-19.557-1.31-21.8-2.679-1.708-1.039-2.388-4.771-2.616-6.495h-.247s.485,6.014,2.713,7.378,13.382,2.747,21.8,2.679c2.427,0,3.271-.883,3.223-2.165C1070.31,761.788,1069.383,762.274,1067.573,762.274Z" transform="translate(-551.809 -397.329)"/></svg>