<svg xmlns="http://www.w3.org/2000/svg" xmlns:xlink="http://www.w3.org/1999/xlink" width="695.522" height="292.689" viewBox="0 0 695.522 292.689"><defs><style>.a{fill:#4445ed;}.b{fill:#fa3654;}.c{fill:#787994;}.d{fill:#2db58d;}.e{fill:#1c1c26;}.f{fill:#272425;}.g{fill:none;}.h{filter:url(#a);}</style><filter id="a" x="519.938" y="0" width="175.584" height="180.468" filterUnits="userSpaceOnUse"><feOffset dy="18" input="SourceAlpha"/><feGaussianBlur stdDeviation="22.5" result="b"/><feFlood flood-color="#4445ed"/><feComposite operator="in" in2="b"/><feComposite in="SourceGraphic"/></filter></defs><g transform="translate(0 40.512)"><g transform="translate(1.392 209.381)"><path class="a" d="M126.4,617.08c42.784,2.871,85.529-8.4,128.2-2.177l-2.015-5.664a483.7,483.7,0,0,1-127.51,7.586c-4.84-.356-2.4,5.35,1.167,5.655,18.98,1.629,37.259-3.739,55.775-6.934a115.151,115.151,0,0,1,28.445-1.721c9.869.748,19.785,2.167,29.618.294l-2.863-5.673a320.528,320.528,0,0,1-58.54,6.537c-17.908.326-36.913-2.308-53.8,5.136-1.453.641-1.516,2.122-.74,3.345a5.017,5.017,0,0,0,4.358,2.152c43.005.022,85.681-11.482,128.721-6.313l-2.014-5.664q-48.615,5.245-97.548,6.272l2.862,5.673c32.126-2.228,64.333-1.491,96.5-.7,4.848.118,2.419-5.418-1.167-5.656-44.854-2.968-89.571,14.237-134.19,4.928q1.008,2.833,2.015,5.664,66.913-4.345,134-4.659l-2.862-5.673a378.029,378.029,0,0,1-60.184,5.819l2.863,5.673a275.09,275.09,0,0,1,62.8-2.949c4.83.331,2.42-5.41-1.167-5.655a282.533,282.533,0,0,0-64.5,2.931,2.114,2.114,0,0,0-1.728,3.166,4.934,4.934,0,0,0,4.591,2.507,378.086,378.086,0,0,0,60.183-5.819,2.117,2.117,0,0,0,1.729-3.166,4.948,4.948,0,0,0-4.591-2.507q-67.053.314-134,4.659a2.043,2.043,0,0,0-1.858,2.8c.514,1.671,2.3,2.535,3.873,2.863,44.745,9.335,89.295-7.9,134.19-4.928l-1.167-5.656c-32.725-.8-65.506-1.581-98.193.687a2.1,2.1,0,0,0-1.729,3.166,4.929,4.929,0,0,0,4.591,2.507q48.886-1.025,97.548-6.273c4.388-.473.594-5.35-2.014-5.664-43.64-5.241-86.83,6.318-130.418,6.3l3.618,5.5c16.66-7.344,35.751-4.415,53.425-4.807a321.12,321.12,0,0,0,57.405-6.514c4.455-.914.377-6.289-2.863-5.673-9.672,1.841-19.331.314-29.036-.359A118.9,118.9,0,0,0,180.2,609.7c-18.243,3.055-36.438,8.733-55.126,7.129q.584,2.827,1.167,5.655a490.111,490.111,0,0,0,129.206-7.569c4.342-.841.648-5.276-2.015-5.664-42.717-6.225-85.4,5.05-128.2,2.177-4.83-.324-2.422,5.415,1.166,5.656Z" transform="translate(-118.831 -607.342)"/></g><g transform="translate(233.707 213.639)"><path class="a" d="M493.512,624.871,625.3,619.745l-2.887-5.628q-65.284,7.392-131.014,9.44c-3.987.124-1.005,4.773,1.145,5.414,9.993,2.979,20.368,1.162,30.536.261q16.033-1.419,32.121-2.061,32.9-1.313,65.806.672l-2.042-5.614-128.65,7.815q1.444,2.814,2.887,5.629c42.7-4.989,85.734-9.99,128.763-6.642l-2.041-5.615q-58.907,7.178-118.148,11.051l2.887,5.628a625.494,625.494,0,0,1,121.027-9.913c4.825.078,2.386-5.543-1.2-5.6a633.583,633.583,0,0,0-122.717,9.886c-4.588.827-.184,5.829,2.887,5.628q59.216-3.869,118.148-11.05c4.286-.522.652-5.406-2.041-5.615-43.608-3.393-87.18,1.559-130.455,6.615a2.067,2.067,0,0,0-1.7,3.121,4.94,4.94,0,0,0,4.591,2.507l128.65-7.815c4.247-.258.685-5.452-2.042-5.615q-31.982-1.91-64.05-.828-16.085.558-32.131,1.895c-9.849.822-20.8,3.35-30.487.463l1.145,5.414q65.669-2.044,131.013-9.44a2.066,2.066,0,0,0,1.7-3.121,4.959,4.959,0,0,0-4.591-2.507l-131.789,5.125a2.06,2.06,0,0,0-1.7,3.122,4.959,4.959,0,0,0,4.591,2.507Z" transform="translate(-488.351 -614.113)"/></g><g transform="translate(475.881 206.243)"><path class="a" d="M881.839,617.593q57.771-.578,115.541.462a1.869,1.869,0,0,0,1.768-2.634,4.834,4.834,0,0,0-3.891-2.83c-38.5-2.032-77.022-.234-115.488,1.64A1.873,1.873,0,0,0,878,616.865a4.956,4.956,0,0,0,3.891,2.83c18.917,2.983,38.008.289,57.018.26a258.837,258.837,0,0,1,57.222,6.438l-1.286-5.436c-39.8-1.766-79.615-.366-119.4,1.1l2.961,5.493q59.464-3.176,119.037-3.218l-2.961-5.493q1.944,1.451.929-.278-.221-.818-.462-1.63a12.409,12.409,0,0,0-.928-2.221,9.288,9.288,0,0,0-4.671-3.871c-4.338-1.728-9.723-1.147-14.311-1.338l-31.943-1.33-31.943-1.33c-10.149-.422-20.507-1.376-30.545.644-1.592.32-2.387,1.414-1.63,2.986a5.161,5.161,0,0,0,4.591,2.507c36.621.372,73.059-8.017,109.681-4.137q-1.062-2.732-2.123-5.464a162.018,162.018,0,0,1-23.48,1.818c-1.7.008-2.283,1.628-1.63,2.986a5.165,5.165,0,0,0,4.591,2.507l26.776.346-3.7-5.343L980.94,609.8c-3.7,1.193,1.188,5,2.864,5.314l14.963,2.837-2.865-5.314-7.6,2.617c-2.609.9-.472,3.971,1.069,4.708l7.711,3.686q-.836-2.192-1.672-4.382l-3.1,1.845c-2.782,1.658,2.122,4.716,3.467,4.988l3.459.7c1.5.3,3.023-.627,2.742-2.253-.311-1.8-2.456-2.865-4.028-3.182l-3.459-.7,3.467,4.988,3.1-1.845c1.937-1.155-.595-3.867-1.672-4.382l-7.711-3.686q.535,2.354,1.069,4.708l7.6-2.617c3.668-1.264-1.148-4.989-2.864-5.314l-14.963-2.837,2.865,5.314,12.749-4.105c1.5-.484,1.367-2.107.651-3.181a5.241,5.241,0,0,0-4.353-2.162l-26.775-.346,2.961,5.493a161.993,161.993,0,0,0,23.479-1.818c4.271-.646.433-5.194-2.124-5.465-37.215-3.943-74.155,4.457-111.356,4.081l2.961,5.492c9.881-1.987,20.042-1.068,30.031-.652l31.943,1.33,31.362,1.306c2.517.1,5.033.2,7.55.314.629.028,3.133-.2,3.63.287.333.323.416,1.637.554,2.07,1.241,3.9,4.45,7.121,8.8,6.7a1.938,1.938,0,0,0,1.63-2.986,5.148,5.148,0,0,0-4.591-2.507q-59.549.042-119.037,3.218a1.935,1.935,0,0,0-1.631,2.986,5.109,5.109,0,0,0,4.592,2.507c39.215-1.446,78.491-2.9,117.722-1.158,1.482.066,3.052-.461,2.742-2.253-.316-1.823-2.456-2.828-4.028-3.183a265.91,265.91,0,0,0-56.645-6.489c-19.189-.13-38.508,2.8-57.6-.209l2.124,5.464c37.9-1.846,75.881-3.7,113.813-1.7l-2.124-5.465q-57.765-1.04-115.542-.462c-1.7.017-2.286,1.623-1.63,2.986a5.137,5.137,0,0,0,4.591,2.507Z" transform="translate(-873.552 -602.35)"/></g><g transform="translate(251.738 45.56)"><path class="b" d="M518.076,410.191c1.391,5.417,3.361,10.16,7.21,14.341,7.234,7.855,17.859,12.409,27.778,15.747,12.274,4.13,25.8,6.648,38.6,3.425,10.411-2.622,20.355-8.993,25.534-18.616,6.079-11.3,4.561-25.9,1.4-37.851-3.26-12.332-10.919-21.9-21.593-28.71-10.184-6.5-22.544-11.912-34.831-11.753A45.105,45.105,0,0,0,532.9,358.182a40.826,40.826,0,0,0-12.647,21.431c-2.386,9.779-4.591,20.611-2.18,30.578.512,2.121,7.206,4.7,6.44,1.535-1.926-7.963-.277-16.963,1.381-24.83,1.2-5.7,2.547-11.011,5.682-16a42.525,42.525,0,0,1,22.412-17.423c10.394-3.44,20.735-2.014,30.639,2.314,10.22,4.466,19.715,11.082,24.523,21.464a62.21,62.21,0,0,1,4.808,34.6c-1.767,10.514-8.675,18.864-17.989,23.766-10.33,5.438-22.265,5.836-33.51,3.42a93.6,93.6,0,0,1-19.8-6.655,41.154,41.154,0,0,1-11.328-7.3c-3.86-3.723-5.516-8.3-6.818-13.364C523.972,409.61,517.267,407.045,518.076,410.191Z" transform="translate(-517.032 -346.77)"/></g><g transform="translate(302.213 102.813)"><path class="b" d="M602.318,454.514c8.3.888,16.669-4.245,18.333-12.71.455-2.315-6.2-5.028-6.493-3.545-1.388,7.058-8.106,12.766-15.465,11.979-1.5-.16-1.694.659-.966,1.769a7.275,7.275,0,0,0,4.591,2.507Z" transform="translate(-597.316 -437.836)"/></g><g transform="translate(282.458 81.642)"><path class="b" d="M565.9,404.766v3.8c0,.465.9,1.189,1.169,1.406a10.417,10.417,0,0,0,2.447,1.466c.571.24,2.933,1.269,2.933.02v-3.8c0-.465-.9-1.189-1.169-1.406a10.442,10.442,0,0,0-2.448-1.465c-.57-.241-2.932-1.27-2.932-.019Z" transform="translate(-565.895 -404.159)"/></g><g transform="translate(317.925 80.154)"><path class="b" d="M622.308,402.5v2.375c0,.508.823,1.222,1.127,1.482a9.352,9.352,0,0,0,2.441,1.478c.626.255,3.017,1.211,3.017-.135v-2.375c0-.507-.823-1.222-1.128-1.482a9.366,9.366,0,0,0-2.44-1.478c-.626-.255-3.017-1.211-3.017.136Z" transform="translate(-622.308 -401.794)"/></g><g transform="translate(296.619 142.698)"><path class="b" d="M590.715,502.2q-.65,17.6-2.291,35.141c-.2,2.164,6.439,5.158,6.672,2.666q1.641-17.537,2.292-35.141c.082-2.216-6.582-5.09-6.672-2.666Z" transform="translate(-588.42 -501.276)"/></g><g transform="translate(30.003 44.293)"><path class="c" d="M171,376.071c5.841-14.865,20.962-25.521,37.038-25.585,9.434-.038,18.728,3.909,26.747,8.591,8.144,4.755,14.6,11.269,18.133,20.111a63.284,63.284,0,0,1,3.961,29.3A31.28,31.28,0,0,1,244.25,430.5c-15.846,11.884-37.576,8.681-54.634,1.235-6.183-2.7-12.232-6.525-14.9-12.99-1.577-3.827-1.612-8.066-2.988-11.958-1.132-3.2-7.888-3.562-6.366.744.356,1.006.744,3.562,1.044,5.146a33.941,33.941,0,0,0,2.031,7.023c2.778,6.52,8.444,11.262,14.532,14.6a84.689,84.689,0,0,0,32.2,9.65c10.388.95,21-.612,30.126-5.849,8.084-4.641,14.444-11.712,17.155-20.725,3.123-10.386,1.757-22.7-1.161-32.994a47.223,47.223,0,0,0-17.573-25.68,74.331,74.331,0,0,0-29.11-13.157c-20.373-4.013-42.454,7.508-50.1,26.978-1.3,3.3,5.238,6.739,6.493,3.545Z" transform="translate(-164.34 -344.753)"/></g><g transform="translate(56.127 80.775)"><path class="c" d="M205.892,403.582v3.8c0,.549.746,1.254,1.086,1.557a8.5,8.5,0,0,0,2.433,1.491c.686.268,3.1,1.141,3.1-.291v-3.8c0-.549-.746-1.254-1.086-1.557a8.495,8.495,0,0,0-2.433-1.491c-.686-.268-3.1-1.141-3.1.291Z" transform="translate(-205.892 -402.782)"/></g><g transform="translate(91.568 79.191)"><path class="c" d="M262.266,401.3v2.375a2.892,2.892,0,0,0,.99,1.735,7.039,7.039,0,0,0,2.417,1.521c.833.3,3.3.942,3.3-.655V403.9a2.89,2.89,0,0,0-.99-1.735,7.037,7.037,0,0,0-2.417-1.521c-.834-.3-3.3-.942-3.3.655Z" transform="translate(-262.266 -400.262)"/></g><g transform="translate(70.198 141.334)"><path class="c" d="M230.575,500.875q-.651,17.6-2.291,35.141c-.3,3.263,6.57,5.9,6.914,2.222q1.641-17.537,2.291-35.142c.121-3.271-6.78-5.857-6.914-2.221Z" transform="translate(-228.274 -499.107)"/></g><g transform="translate(18.135 88.203)"><path class="c" d="M196.888,476.429c-8.409,1.587-17.338,1.344-25.321-1.982a32.26,32.26,0,0,1-16.784-16.707c-6.483-14.4-.622-32.393,14.081-38.943,1.613-.719-3.9-4.971-5.9-4.08a29.934,29.934,0,0,0-16.484,19.642,32.887,32.887,0,0,0,4.076,25.488c10.455,17.187,32.011,24.53,51.254,20.9,2.638-.5-3.015-4.676-4.922-4.316Z" transform="translate(-145.463 -414.596)"/></g><g transform="translate(75.908 149.252)"><path class="c" d="M240.268,517.071c12.634,3.834,19.96,15.622,26.528,26.224a5.044,5.044,0,0,0,4.591,2.507,2,2,0,0,0,1.678-3.074c-7.969-12.866-16.985-26.164-32.234-30.791-4.668-1.417-4.407,3.968-.563,5.134Z" transform="translate(-237.357 -511.701)"/></g><g transform="translate(14.358 40.957)"><path class="c" d="M151.041,351.616a32.069,32.069,0,0,0-5.736-10.267c-.973-1.191-3.259-2.291-4.8-1.769-1.674.567-1.034,2.122-.2,3.141a23.933,23.933,0,0,1,4.124,7.682,5.35,5.35,0,0,0,4.083,3.082c1.222.214,3.081-.214,2.532-1.869Z" transform="translate(-139.456 -339.447)"/></g><g transform="translate(0.045 62.358)"><path class="c" d="M131.039,375.852a58.859,58.859,0,0,0-12.682-2.357c-1.6-.116-2.052,1.25-1.344,2.463a5.98,5.98,0,0,0,4.591,2.507,43.689,43.689,0,0,1,9.327,1.688c1.1.329,3.239.768,3.437-.9.179-1.513-2.157-3.045-3.33-3.4Z" transform="translate(-116.689 -373.488)"/></g><g transform="translate(0 80.57)"><path class="c" d="M129.342,402.49a54.5,54.5,0,0,0-11.5,3.2c-3.643,1.48,1.715,6.272,4.462,5.157a47.9,47.9,0,0,1,10.022-2.913c4.4-.746.03-5.954-2.988-5.443Z" transform="translate(-116.617 -402.455)"/></g><g transform="translate(61.896 101.359)"><path class="c" d="M221.623,450.247a14.014,14.014,0,0,1,8.888-9.5c4.471-1.428,8.608.223,10.458,4.562a6,6,0,0,0,4.139,2.98c1.018.213,3,.1,2.32-1.481-2.781-6.525-9.915-11.086-16.98-11.276A15.739,15.739,0,0,0,215.13,446.7c-.763,2.526,5.861,5.639,6.493,3.545Z" transform="translate(-215.069 -435.522)"/></g><g transform="translate(482.704 45.518)"><path class="d" d="M885.389,409.193c1.355,5.276,3.208,9.974,6.926,14.077,7.067,7.8,17.463,12.367,27.171,15.834,12.207,4.359,25.588,7.054,38.472,4.345,10.527-2.214,20.761-8.487,26.2-17.961,6.4-11.136,5.034-25.969,1.872-37.92-3.221-12.172-10.624-21.56-21.1-28.4-10.087-6.59-22.319-12.082-34.525-12.447A44.171,44.171,0,0,0,901.2,357.1a39.977,39.977,0,0,0-13.443,21.652c-2.38,9.589-4.741,20.643-2.372,30.44.336,1.39,2.414,2.4,3.6,2.908.384.164,3.27,1.212,2.967-.043-1.965-8.126-.477-16.985,1.216-25.03,1.168-5.548,2.41-10.849,5.353-15.758a42.827,42.827,0,0,1,21.86-17.886c10.287-3.8,20.891-3.006,30.929,1.214,10.35,4.351,19.871,10.844,24.918,21.187a57.25,57.25,0,0,1,4.828,16.782c.9,6.074,1.386,12.4.384,18.49-1.716,10.417-8.235,18.88-17.406,23.949-10.119,5.593-21.829,6.43-33.053,4.337a91.373,91.373,0,0,1-20.336-6.445,40.652,40.652,0,0,1-11.591-7.213c-4-3.787-5.766-8.43-7.1-13.628-.358-1.394-2.4-2.393-3.6-2.907C887.983,408.992,885.068,407.944,885.389,409.193Z" transform="translate(-884.406 -346.702)"/></g><g transform="translate(513.352 81.092)"><path class="d" d="M933.154,404.268v3.8c0,2.332,6.695,5.128,6.695,2.624v-3.8c0-2.332-6.695-5.128-6.695-2.625Z" transform="translate(-933.154 -403.285)"/></g><g transform="translate(548.93 80.001)"><path class="d" d="M989.744,402.03V404.4c0,.417.99,1.152,1.213,1.325a11.962,11.962,0,0,0,2.454,1.452,5.817,5.817,0,0,0,2.155.667c.4,0,.687-.01.687-.48v-2.375c0-.417-.99-1.152-1.213-1.325a11.922,11.922,0,0,0-2.455-1.452,5.812,5.812,0,0,0-2.154-.666c-.4,0-.687.01-.687.48Z" transform="translate(-989.744 -401.55)"/></g><g transform="translate(527.599 142.452)"><path class="d" d="M958.11,501.724q-.651,17.6-2.291,35.141c-.194,2.066,6.428,5.062,6.648,2.709q1.64-17.537,2.291-35.141c.078-2.122-6.564-4.992-6.648-2.71Z" transform="translate(-955.815 -500.885)"/></g><g transform="translate(509.228 106.148)"><path class="d" d="M926.9,446.273c4.3,9.9,15.3,13.194,25.159,14.247,4.926.527,10.276,1.231,15.063-.436,4.77-1.66,7.635-5.859,10.158-9.974,1.834-2.991-4.629-6.585-6.493-3.545-1.824,2.976-3.787,6.311-7.123,7.782-3.589,1.582-7.9.856-11.667.483-7.094-.7-15.539-2.011-18.716-9.33-1.355-3.123-8.2-3.419-6.382.773Z" transform="translate(-926.594 -443.14)"/></g><g transform="translate(531.808 108.177)"><path class="d" d="M968.275,500.1c16.58,1.065,34.026-1.09,48.214-10.337a50.048,50.048,0,0,0,15.579-15.675c4.44-7.3,6.611-15.665,8.734-23.86.524-2.021-6.163-4.818-6.493-3.545-2.04,7.871-4.117,15.883-8.214,22.981a48.207,48.207,0,0,1-15.556,16.111c-13.978,9.108-30.943,11.233-47.281,10.184-1.674-.107-.075,1.714.366,2.1a8.31,8.31,0,0,0,4.651,2.041Z" transform="translate(-962.51 -446.366)"/></g><g transform="translate(597.141 86.596)"><path class="d" d="M1074.849,430.025c.952.035.827,1,.685-.077a9.615,9.615,0,0,0-.873-1.94,13.451,13.451,0,0,1-1.252-4.955c-.023-1.469,1.2-5.756,3.494-5.055,1.4.426,2.08,3.371,2.2,4.579.193,1.927-.173,4.284-2.131,5.115-3.88,1.647,1.144,6.806,4.291,5.471,10.182-4.321,3.247-21.139-6.368-21.122-5.6.009-8.844,5.375-8.433,10.51.4,5.034,3.409,13.171,9.412,13.387,4.829.174,2.767-5.776-1.026-5.912Z" transform="translate(-1066.428 -412.04)"/></g><g transform="translate(464.768 108.697)"><path class="d" d="M915.19,495.429c-27.72,3.086-44.495-22.651-52.909-45.346-.668-1.8-7.276-4.393-6.307-1.779,5.168,13.937,12.421,27.5,23.8,37.366,10.973,9.516,25.634,15.737,40.325,14.1,1.636-.182.419-1.775-.216-2.373-1.1-1.032-3.11-2.146-4.691-1.97Z" transform="translate(-855.877 -447.194)"/></g><g transform="translate(451.17 96.504)"><path class="d" d="M848.307,444.884c5.318-.052,9.676-4.419,7.752-9.88s-8.823-8.311-14.2-6.806c-5.018,1.405-9.01,6.405-7.144,11.7,2.063,5.853,9.047,7.612,14.568,7.449,1.535-.045,2.073-1.071,1.3-2.38a5.937,5.937,0,0,0-4.591-2.507c-2.478.074-4.872.436-5.018-2.665-.119-2.516,1.594-4.741,3.661-5.98,2.312-1.387,5.319-2.008,5.16,1.6a4.891,4.891,0,0,1-4.78,4.579c-1.545.015-2.061,1.091-1.3,2.38a5.962,5.962,0,0,0,4.591,2.507Z" transform="translate(-834.247 -427.799)"/></g><g transform="translate(15.116 211.657)"><path class="e" d="M140.675,612.725a133.7,133.7,0,0,1,.3,27.229h3.7q-.034-.373-.069-.746c-.216-2.351-3.917-2.373-3.7,0q.034.373.069.746a1.851,1.851,0,0,0,3.7,0,133.652,133.652,0,0,0-.3-27.229c-.265-2.338-3.967-2.365-3.7,0Z" transform="translate(-140.661 -610.962)"/></g><g transform="translate(11.758 211.5)"><path class="e" d="M137.991,615.9c3.206-2.323,9.066-2.19,10.48,2.226a6.018,6.018,0,0,1-1.025,5.381c-1.8,2.282-4.658,1.9-7.229,1.469-2.329-.393-3.33,3.171-.983,3.567,3.683.621,7.562.913,10.41-1.94a9.825,9.825,0,0,0,2.539-8.89c-1.564-7.034-10.705-8.886-16.059-5.008-1.909,1.384-.065,4.594,1.867,3.194Z" transform="translate(-135.32 -610.713)"/></g><g transform="translate(28.949 212.807)"><path class="e" d="M163.179,615.979a20.543,20.543,0,0,1,5.648,13.567l3.446-.934c-1.469-2.219-.87-4.8-.024-7.155a8.639,8.639,0,0,1,1.772-3.237c.9-.9,3.149-1.667,3.684.138.675,2.277,4.246,1.308,3.567-.983-1.384-4.674-7.237-4.687-10.137-1.455-3.209,3.577-4.821,10.379-2.055,14.557.961,1.452,3.513,1,3.447-.933a24.554,24.554,0,0,0-6.731-16.182c-1.631-1.741-4.243.879-2.615,2.615Z" transform="translate(-162.665 -612.791)"/></g><g transform="translate(47.779 213.161)"><path class="e" d="M202.581,616.118c-1.4-4.445-6.776-2.953-8.421.432-1.658,3.411-2.759,9.239.892,11.789,3.733,2.607,8.7.062,10.372-3.721a9.114,9.114,0,0,0-2.266-10.581c-1.819-1.51-4.449,1.093-2.615,2.616,2.571,2.135,2.866,7.063-.538,8.668-2.647,1.248-3.887-.952-3.592-3.311a14.666,14.666,0,0,1,.683-2.846c.039-.114,1.6-3.074,1.918-2.063.714,2.262,4.286,1.3,3.567-.983Z" transform="translate(-192.614 -613.354)"/></g><g transform="translate(62.381 200.562)"><path class="e" d="M215.848,595.088a205.458,205.458,0,0,0,3.455,23.724c.415,2.017,3.807,1.6,3.633-.492-.2-2.415-.672-5.877,1.27-7.754a4.287,4.287,0,0,1,5.639.013,4.574,4.574,0,0,1,.016,6.162c-2.019,2.2-5.256,1.638-7.394.022-1.9-1.435-3.745,1.775-1.867,3.194,3.361,2.54,8.457,2.69,11.6-.342a8.388,8.388,0,0,0,1.023-10.765,8.035,8.035,0,0,0-9.54-2.331c-4.572,2.1-4.812,7.445-4.447,11.8l3.633-.492a196.855,196.855,0,0,1-3.323-22.741c-.2-2.354-3.9-2.375-3.7,0Z" transform="translate(-215.84 -593.314)"/></g><g transform="translate(83.674 202.042)"><path class="e" d="M249.71,597.453l.905,23.553c.091,2.373,3.79,2.385,3.7,0l-.905-23.553c-.091-2.373-3.79-2.384-3.7,0Z" transform="translate(-249.708 -595.669)"/></g><g transform="translate(92.578 211.023)"><path class="e" d="M267.183,618.809c2.393,1.071,5.375,1.466,7.518-.409a5.1,5.1,0,0,0,1.278-5.971c-2.662-5.4-9.591-.817-11.238,2.922-1.919,4.352-.654,9.875,3.723,12.187a10.2,10.2,0,0,0,13.012-3.253c1.347-1.97-1.857-3.822-3.194-1.867-2.582,3.777-9.444,3.353-10.582-1.441a6.523,6.523,0,0,1,1.516-5.829c.711-.746,2.966-2.28,3.515-.715.7,1.982-2.911,1.526-3.68,1.182-2.155-.965-4.038,2.222-1.867,3.194Z" transform="translate(-263.871 -609.953)"/></g><g transform="translate(113.353 211.625)"><path class="e" d="M301.776,626.017a14.145,14.145,0,0,1,.541-12.339h-3.194c1.979,3.116,6.428,13.778,10.924,7.692.83-1.123,4.81-7.644,6.779-6.106,1.06.829,1.4,4.857,1.571,6.1a30.489,30.489,0,0,1,.17,6.039c-.145,2.378,3.555,2.369,3.7,0,.23-3.787.111-17.822-6.573-16.2-2.692.653-5.272,3.306-6.907,5.42a26.574,26.574,0,0,1-1.5,2.2q-.045.336-.092.671l-1.22-1.921-3.66-5.763a1.868,1.868,0,0,0-3.194,0A17.71,17.71,0,0,0,298.209,627c.881,2.178,4.461,1.226,3.567-.983Z" transform="translate(-296.916 -610.911)"/></g><g transform="translate(243.662 205.456)"><path class="e" d="M507.162,601.931l-.219-.114q.424,1.045.85,2.089l-.5.62-2.241-.289c.321.292.3,2.759.325,3.1q.144,1.724.257,3.45.206,3.165.306,6.335c.14,4.42.112,8.841-.043,13.26-.084,2.381,3.615,2.377,3.7,0,.19-5.38.183-10.763-.069-16.141q-.189-4.033-.549-8.054c-.147-1.645-.012-3.389-1.308-4.571a1.922,1.922,0,0,0-2.241-.289,2.044,2.044,0,0,0-1.2,1.589,1.908,1.908,0,0,0,.85,2.089l.219.114c2.109,1.1,3.981-2.092,1.867-3.194Z" transform="translate(-504.187 -601.099)"/></g><g transform="translate(238.824 212.796)"><path class="f" d="M498.245,618.179l12.607-1.687c2.325-.311,2.356-4.014,0-3.7l-12.607,1.687c-2.325.311-2.356,4.014,0,3.7Z" transform="translate(-496.49 -612.774)"/></g><g transform="translate(257.231 205.049)"><path class="e" d="M525.818,602.763a122.3,122.3,0,0,1,2.734,24.977h3.7c-.283-2.344.237-15.852,5.3-11.424,3.142,2.747,1.318,9.1,2.241,12.812.575,2.309,4.143,1.33,3.567-.983-1.269-5.1,1.171-15.723-7.089-16.372-7.52-.59-8.328,10.929-7.72,15.968.277,2.294,3.716,2.448,3.7,0a127.239,127.239,0,0,0-2.866-25.961c-.5-2.326-4.067-1.342-3.567.983Z" transform="translate(-525.77 -600.451)"/></g><g transform="translate(278.574 216.764)"><path class="e" d="M559.722,620.864q.412,6.992.824,13.984c.14,2.366,3.839,2.381,3.7,0l-.824-13.984c-.139-2.366-3.839-2.382-3.7,0Z" transform="translate(-559.718 -619.084)"/></g><g transform="translate(277.072 207.128)"><path class="f" d="M559.115,607.457a1.85,1.85,0,0,0,0-3.7,1.85,1.85,0,0,0,0,3.7Z" transform="translate(-557.328 -603.758)"/></g><g transform="translate(286.914 215.216)"><path class="e" d="M573.165,620.808a29.422,29.422,0,0,1,2.6,11.434h3.7a15.992,15.992,0,0,1,.543-6.659,15.74,15.74,0,0,1,1.244-2.878,16.28,16.28,0,0,1,.977-1.526q.613-1.5.937-.327c1.179.9,1.674,5.174,1.987,6.631a50.124,50.124,0,0,1,1,7.94c.123,2.368,3.822,2.383,3.7,0a54.637,54.637,0,0,0-1.9-12.021c-.705-2.5-1.635-6.687-4.936-6.78-2.794-.078-4.557,3.265-5.572,5.426a18.976,18.976,0,0,0-1.677,10.193c.249,2.31,3.768,2.431,3.7,0a34.116,34.116,0,0,0-3.1-13.3c-.979-2.166-4.168-.287-3.194,1.867Z" transform="translate(-572.982 -616.622)"/></g><g transform="translate(305.426 203.445)"><path class="e" d="M602.454,600.222a166.782,166.782,0,0,1,2.046,28.243c-.028,2.381,3.672,2.383,3.7,0a172.6,172.6,0,0,0-2.178-29.226c-.375-2.344-3.939-1.349-3.567.983Z" transform="translate(-602.427 -597.9)"/></g><g transform="translate(305.973 216.97)"><path class="e" d="M615.517,619.637,604.2,625.488a1.865,1.865,0,0,0,0,3.194l12.878,7.569c2.057,1.209,3.92-1.987,1.867-3.194l-12.878-7.57v3.194l11.318-5.851c2.115-1.094.247-4.286-1.867-3.194Z" transform="translate(-603.298 -619.413)"/></g><g transform="translate(326.724 215.301)"><path class="e" d="M636.308,618.538q.458,7.725.916,15.451c.14,2.366,3.839,2.382,3.7,0q-.457-7.725-.916-15.451c-.14-2.366-3.84-2.381-3.7,0Z" transform="translate(-636.304 -616.757)"/></g><g transform="translate(326.875 204.184)"><path class="f" d="M638.332,602.773a1.85,1.85,0,0,0,0-3.7,1.85,1.85,0,0,0,0,3.7Z" transform="translate(-636.545 -599.074)"/></g><g transform="translate(334 215.563)"><path class="e" d="M647.99,619.987a66.274,66.274,0,0,1,3.117,12.981c.3,2.177,3.5,1.454,3.633-.492.2-2.771,1.584-11.648,5.585-11.212,1.934.211,2.036,2.468,2.415,4.154.466,2.07.924,4.141,1.386,6.212.518,2.322,4.085,1.34,3.567-.983-.934-4.186-1.454-14.319-8.025-13.414-6.314.869-8.268,10.158-8.626,15.243l3.633-.492A66.245,66.245,0,0,0,651.556,619c-.78-2.233-4.354-1.273-3.567.983Z" transform="translate(-647.877 -617.176)"/></g><g transform="translate(344.322 214.759)"><path class="e" d="M689.255,619.144a5.291,5.291,0,0,0-8.1-2.191c-3.164,2.212-4.341,7.819-3.966,11.439.4,3.869,3.8,6.326,7.565,4.906,4.837-1.825,5.109-7.187,4.689-11.583l-3.633.492c.7,4.153,1.459,8.3,2.1,12.461s.519,8.131-2.447,11.4a11.028,11.028,0,0,1-17.706-2.128,1.851,1.851,0,0,0-3.194,1.867c4.474,7.67,14.842,10.037,21.884,4.385,8.932-7.17,4.533-19.469,2.931-28.971-.343-2.036-3.831-1.586-3.633.492.191,2,.606,4.642-.446,6.488-1.4,2.449-4.363,2.147-4.469-.817a14.209,14.209,0,0,1,.949-4.97c.285-.772,2.906-4.789,3.91-2.289.876,2.181,4.456,1.229,3.567-.983Z" transform="translate(-664.297 -615.895)"/></g><g transform="translate(484.67 210.975)"><path class="e" d="M899.3,612.619c-3.67-5.495-11.994-2.075-10.286,4.469a1.839,1.839,0,0,0,1.292,1.292c2.953.692,8.922,2.439,8.176,6.584-.987,5.472-9.352,2.865-7.038-2.184.984-2.149-2.2-4.031-3.194-1.867-3.189,6.96,4.9,14.528,11.217,9.13a7.347,7.347,0,0,0,1.477-9.743c-2.095-3.2-6.1-4.656-9.654-5.487l1.291,1.291a1.947,1.947,0,0,1,3.526-1.619c1.315,1.97,4.521.12,3.194-1.867Z" transform="translate(-887.534 -609.877)"/></g><g transform="translate(501.738 212.766)"><path class="e" d="M925.8,614.268c-2.97-2.643-7.561-1.726-9.792,1.49-2.618,3.775-1.032,9.829,1.92,13,3.234,3.476,7.565-.132,9.067-3.46a10.388,10.388,0,0,0-1.735-11.26c-1.594-1.775-4.2.847-2.615,2.615a6.407,6.407,0,0,1,1.521,5.366,6.739,6.739,0,0,1-.954,2.552c-.651,1.017-1.134,1.7-2.3,1.329-2.065-.648-2.881-5-2.385-6.858.475-1.779,2.945-3.687,4.659-2.161,1.773,1.577,4.4-1.029,2.615-2.615Z" transform="translate(-914.682 -612.725)"/></g><g transform="translate(518.483 198.36)"><path class="e" d="M941.5,591.6q-.46,14.737.249,29.467c.114,2.37,3.814,2.383,3.7,0q-.71-14.727-.249-29.467c.074-2.382-3.625-2.379-3.7,0Z" transform="translate(-941.317 -589.811)"/></g><g transform="translate(525.211 213.098)"><path class="e" d="M952.118,615.023c-.427,4.487.294,14.62,6.564,15.032,2.464.163,4.136-1.689,4.909-3.854,1.239-3.466,1.569-7.443,1.936-11.085l-3.633.492a69.256,69.256,0,0,0,3.2,13.314c.776,2.234,4.351,1.274,3.567-.983a69.212,69.212,0,0,1-3.2-13.314c-.306-2.217-3.442-1.407-3.633.492-.227,2.252-.542,4.488-.981,6.709-.156.79-.287,1.6-.52,2.374-.333,1.1-.314,1.952-1.59,1.79-3.359-.426-3.138-8.692-2.921-10.966.225-2.368-3.475-2.353-3.7,0Z" transform="translate(-952.018 -613.253)"/></g><g transform="translate(538.725 205.655)"><path class="f" d="M975.3,605.115h14.867a1.85,1.85,0,0,0,0-3.7H975.3a1.85,1.85,0,0,0,0,3.7Z" transform="translate(-973.513 -601.416)"/></g><g transform="translate(546.695 197.626)"><path class="e" d="M986.191,590.429q.439,13.986.876,27.973c.074,2.375,3.773,2.385,3.7,0q-.438-13.987-.876-27.973c-.074-2.375-3.773-2.385-3.7,0Z" transform="translate(-986.19 -588.644)"/></g><g transform="translate(559.396 213.093)"><path class="e" d="M1006.4,615.025q.46,7.357.92,14.713c.148,2.365,3.848,2.382,3.7,0l-.92-14.713c-.148-2.365-3.848-2.381-3.7,0Z" transform="translate(-1006.391 -613.245)"/></g><g transform="translate(561.025 199.766)"><path class="f" d="M1010.77,595.746a1.851,1.851,0,0,0,0-3.7,1.851,1.851,0,0,0,0,3.7Z" transform="translate(-1008.984 -592.047)"/></g><g transform="translate(568.291 213.944)"><path class="e" d="M1027.867,614.64c-7.6,1.469-10.208,11.731-3.367,16.071,3.7,2.348,6.834.414,8.374-3.273a12.832,12.832,0,0,0-.965-11.609c-1.226-2.038-4.425-.18-3.194,1.867a9.213,9.213,0,0,1,1.32,6.422c-.37,2.109-1.616,5.131-4.041,3.074-3.645-3.093-1.371-8.167,2.856-8.984,2.334-.451,1.346-4.017-.983-3.567Z" transform="translate(-1020.541 -614.6)"/></g><g transform="translate(583.962 211.38)"><path class="e" d="M1045.553,613.771A85.464,85.464,0,0,1,1048.6,628.5c.264,2.3,3.7,2.442,3.7,0a20.157,20.157,0,0,1,1.132-6.847c.647-1.81,2.136-5.29,3.844-6.358q.5-1.127,1.47-.411l.464,1.2a35.314,35.314,0,0,1,1.177,4.058,37.436,37.436,0,0,1,.891,7.886c.036,2.378,3.734,2.385,3.7,0a40.274,40.274,0,0,0-2.2-12.927c-.834-2.343-2.257-5.182-5.246-4.462-2.832.682-5.138,4.613-6.365,7.015A23.667,23.667,0,0,0,1048.6,628.5h3.7a91.006,91.006,0,0,0-3.184-15.71c-.678-2.276-4.25-1.306-3.567.983Z" transform="translate(-1045.466 -610.521)"/></g><g transform="translate(-1090 -449.197)"><path class="g" d="M3984.42,466.746s7.141-8.953,16.741-5.717,15.533,9.385,14.346,16.072-3.991,15.857-6.688,17.367-8.63,5.717-8.63,5.717l-9.924,1.079-8.09-14.023-2.7-11.218Z" transform="translate(-2300)"/><g transform="translate(1684.843 501.946)"><path class="d" d="M1063.12,359.433c-2.187,5.363,6.53,8.293,10.41,8.079,4.36-.241,7.574-4.918,4.652-8.661-1.463-1.875-4.064.76-2.615,2.615.43.551-.206,1.442-.614,1.8-.947.839-2.349.589-3.462.331-1.265-.294-5.536-1.389-4.8-3.185.9-2.2-2.678-3.162-3.567-.983Z" transform="translate(-1062.773 -358.203)"/></g><g transform="translate(1684.42 506.694)"><path class="d" d="M1063.984,365.965a3.51,3.51,0,0,0-1.792,3.951c.453,2.057,2.373,3.019,4.224,3.574,4.289,1.286,9.464,1.5,11.423-3.328.895-2.2-2.681-3.164-3.567-.983-.671,1.654-2.891,1.6-4.321,1.362a18.964,18.964,0,0,1-2.229-.526,20.411,20.411,0,0,1-1.87-.857c2.134-1.055.262-4.247-1.867-3.194Z" transform="translate(-1062.102 -365.755)"/></g><g transform="translate(1685.744 499.682)"><path class="d" d="M1065.963,358.318l11.656,1.537c2.353.311,2.33-3.392,0-3.7l-11.656-1.537c-2.353-.311-2.33,3.391,0,3.7Z" transform="translate(-1064.207 -354.601)"/></g><g transform="translate(1677.438 458.186)"><g class="h" transform="matrix(1, 0, 0, 1, -587.44, -49.5)"><path class="d" d="M1063.775,330.325c-2.26-4.674-4.577-9.324-6.78-14.024-1.974-4.212-3.057-8.318-1.637-12.888a16.027,16.027,0,0,1,19.188-10.825,17.362,17.362,0,0,1,13.306,18.556c-.356,4.7-2.518,9.474-6.516,12.129-3.68,2.444-6.833,4.415-9.441,8.108-1.376,1.948,1.83,3.8,3.194,1.867a19.255,19.255,0,0,1,5.621-5.286,29.226,29.226,0,0,0,5.128-3.541,19.925,19.925,0,0,0,5.3-10.2c1.445-7.244-.6-15.229-6.182-20.26-11.39-10.262-30.7-5.251-33.64,10.429a19.871,19.871,0,0,0,1.655,11.967c2.351,5.356,5.07,10.573,7.615,15.838,1.036,2.143,4.227.269,3.194-1.867Z" transform="translate(-463.56 -239.1)"/></g></g><g transform="translate(1688.011 481.004)"><path class="d" d="M1073.7,344.052a72.1,72.1,0,0,0-2.25-17.844c-.588-2.305-4.156-1.328-3.567.983A67.883,67.883,0,0,1,1070,344.052a1.85,1.85,0,0,0,3.7,0Z" transform="translate(-1067.814 -324.892)"/></g><g transform="translate(1695.058 479.622)"><path class="d" d="M1082.734,343.759a55.1,55.1,0,0,1,5.323-18.253c1.044-2.13-2.145-4.007-3.194-1.867a60.386,60.386,0,0,0-5.829,20.12c-.26,2.363,3.441,2.344,3.7,0Z" transform="translate(-1079.022 -322.695)"/></g><g transform="translate(1687.116 484.729)"><path class="d" d="M1068.712,335.009a50.849,50.849,0,0,1,14.978.015c2.329.348,3.333-3.215.984-3.567a57.037,57.037,0,0,0-16.945-.014c-2.346.347-1.349,3.912.983,3.567Z" transform="translate(-1066.39 -330.817)"/></g><g transform="translate(1715.669 456.191)"><path class="d" d="M1114.92,292.231a12.21,12.21,0,0,1,4.312-3.14,1.911,1.911,0,0,0,1.292-2.275,1.861,1.861,0,0,0-2.275-1.291,16.321,16.321,0,0,0-5.944,4.092c-1.6,1.76,1.012,4.383,2.615,2.615Z" transform="translate(-1111.807 -285.425)"/></g><g transform="translate(1718.692 463.025)"><path class="d" d="M1118.38,300.761l7.01-.754c2.342-.252,2.368-3.954,0-3.7l-7.01.754c-2.342.252-2.368,3.954,0,3.7Z" transform="translate(-1116.614 -296.295)"/></g><g transform="translate(1709.311 449.197)"><path class="d" d="M1105.482,281.609a12.019,12.019,0,0,1,.452-5.035c.705-2.279-2.864-3.253-3.567-.983a14.7,14.7,0,0,0-.585,6.018,1.906,1.906,0,0,0,1.85,1.849,1.861,1.861,0,0,0,1.849-1.849Z" transform="translate(-1101.692 -274.3)"/></g></g><g transform="translate(261.521 149.392)"><path class="b" d="M569.49,512.079a52.32,52.32,0,0,0-26.577,4.914c-3.088,1.476-9.29,4.126-10.195,7.826-.881,3.6,3.16,6.281,6.009,7.435,4.285,1.736,9.213,2.323,13.761,2.976a94.806,94.806,0,0,0,16.19,1.068,59.683,59.683,0,0,0,14.482-1.841c3.331-.948,6.838-2.764,7.039-6.622.13-2.474-6.589-5.351-6.736-2.548-.162,3.084-3.754,4.193-6.28,4.759a62.184,62.184,0,0,1-11.833,1.43,97.452,97.452,0,0,1-23.3-2.441,9.315,9.315,0,0,1-2.4-.551,3.819,3.819,0,0,1-.676-.227l.319-.077c-.229-1.393,2.654-2.984,3.543-3.574a46.98,46.98,0,0,1,9.141-4.735,47.819,47.819,0,0,1,20.842-2.971c1.57.12,1.985-1.122,1.264-2.315a6.219,6.219,0,0,0-4.591-2.507Z" transform="translate(-532.594 -511.922)"/></g><g transform="translate(281.887 149.889)"><path class="b" d="M588.636,517.979a26.429,26.429,0,0,1,17.414,4.251c2.633,1.821,5.175,4.191,4.01,7.693-1.106,3.326-4.242,5.243-7.386,6.317-10.171,3.475-28.457,5.3-31.008-8.825-.47-2.6-7.3-4.854-6.633-1.181,1.458,8.072,8.77,13.98,16.306,16.263,8.741,2.649,20.055,1.547,28.33-2.288,3.694-1.711,6.952-4.754,7.453-9,.537-4.563-2.942-8.218-6.257-10.795a36.7,36.7,0,0,0-25.383-7.572c-4.315.365.436,5.37,3.154,5.141Z" transform="translate(-564.987 -512.714)"/></g><g transform="translate(278 159.6)"><path class="b" d="M567.5,531.283a9.779,9.779,0,0,0-5.607-3.067,3.518,3.518,0,0,0-2.74.538.731.731,0,0,0-.292.924,3.231,3.231,0,0,0,.994,1.338,9.66,9.66,0,0,0,1.543,1.07,6.489,6.489,0,0,0,2.5.878l2.62.126c.421.02,1.184.091,1.445-.388.248-.455-.19-1.115-.456-1.425a7.1,7.1,0,0,0-2.09-1.629,6.4,6.4,0,0,0-2.5-.878l-2.62-.126,4.745,4.21a1.937,1.937,0,0,1,.68-.383l-.495.128a2.6,2.6,0,0,1,.257-.057c.123-.018.482.028.072-.023a6.214,6.214,0,0,1-3.636-1.929,8.246,8.246,0,0,0,2.09,1.629,6.848,6.848,0,0,0,2.5.878c.462.036,1.178.1,1.446-.387.25-.458-.166-1.118-.456-1.426Z" transform="translate(-558.803 -528.159)"/></g><g transform="translate(309.689 159.365)"><path class="b" d="M614.988,528.68l-1.823-.668a3.758,3.758,0,0,0-2.511-.014,2.241,2.241,0,0,0-1.284,1.573c-.662,2.1.827,4.415,2.385,5.7,1.88,1.548,4.765,2.5,7.1,1.431,1.565-.715,1.578-2.534.534-3.747-1.066-1.239-3.227-2.368-4.887-1.609a2.167,2.167,0,0,1-.34.139q.663-.137.321-.1-.38.034.409.008-.4-.057.1.035.5.121.1,0,.934.429.414.158l.512.351a3.274,3.274,0,0,1-.284-.234q.6.636.335.319a2.442,2.442,0,0,1-.167-.217q.434.7.2.245l.132.406a2.468,2.468,0,0,1-.077-.343c0,.124,0,.248.007.372a6.02,6.02,0,0,1,.128-.705l-3.794,1.559,1.823.668c1.3.477,3.659.2,3.794-1.559.143-1.857-1.567-3.2-3.127-3.768Z" transform="translate(-609.208 -527.787)"/></g><g transform="translate(159.653 125.852)"><path class="e" d="M375.432,481.274a390.855,390.855,0,0,1,49.738-1c4.828.215,2.081-5.222-1.32-5.373a403.689,403.689,0,0,0-51.407.935,1.891,1.891,0,0,0-1.6,2.935,5.124,5.124,0,0,0,4.591,2.507Z" transform="translate(-370.561 -474.482)"/></g><g transform="translate(381.268 125.521)"><path class="e" d="M727.983,481.3q26.417-.34,52.771-2.335c4.258-.323-.643-5.2-3.226-5.006q-26.344,2-52.771,2.335c-1.576.021-2.106,1.192-1.364,2.5a5.772,5.772,0,0,0,4.591,2.507Z" transform="translate(-723.062 -473.954)"/></g></g></svg>