<svg xmlns="http://www.w3.org/2000/svg" width="309.43" height="32.318" viewBox="0 0 309.43 32.318"><defs><style>.a{fill:#4445ed;}</style></defs><g transform="translate(0 16.172) rotate(-3)"><path class="a" d="M135.061,613.573c91.7,1.837,183.324-5.372,274.775-1.393l-4.319-3.624c-89.936,5.2-181.934,6.863-273.3,4.854-10.373-.228-5.138,3.423,2.5,3.619,40.681,1.042,79.861-2.392,119.547-4.437,20.256-1.043,40.434-1.566,60.97-1.1,21.154.479,42.407,1.386,63.484.188l-6.137-3.63c-41.3,2.529-83.315,3.953-125.474,4.183-38.383.209-79.12-1.477-115.316,3.286-3.114.41-3.249,1.358-1.586,2.14,2.033.956,5.685,1.377,9.341,1.377,92.177.014,183.648-7.347,275.9-4.039l-4.318-3.625q-104.2,3.356-209.085,4.014l6.135,3.63c68.859-1.426,137.891-.954,206.833-.45,10.391.076,5.184-3.467-2.5-3.619-96.139-1.9-191.986,9.11-287.622,3.154l4.319,3.625q143.422-2.78,287.215-2.981l-6.135-3.63c-42.607,2.268-85.725,3.512-129,3.723l6.137,3.63c44.5-2.153,89.625-2.805,134.607-1.887,10.352.212,5.188-3.462-2.5-3.619-46.176-.943-92.551-.335-138.243,1.876-3.563.172-5.219,1.03-3.7,2.026,1.67,1.1,6.069,1.622,9.841,1.6,43.272-.212,86.391-1.456,129-3.723,3.543-.189,5.238-1.019,3.706-2.026-1.686-1.107-6.06-1.609-9.841-1.6q-143.721.2-287.217,2.981c-3.3.064-4.9.9-3.983,1.792,1.1,1.069,4.935,1.622,8.3,1.832,95.906,5.973,191.394-5.055,287.622-3.154l-2.5-3.619c-70.144-.512-140.406-1.011-210.467.439-3.668.076-5.119,1.1-3.706,2.026,1.664,1.094,6.073,1.628,9.841,1.6Q312.96,618.359,417.262,615c9.4-.3,1.273-3.423-4.318-3.624-93.537-3.353-186.112,4.043-279.538,4.029l7.755,3.517c35.71-4.7,76.628-2.825,114.51-3.076,41.348-.273,82.533-1.687,123.043-4.168,9.549-.585.809-4.024-6.137-3.63-20.732,1.178-41.434.2-62.235-.23-20.155-.417-40.075.034-59.974,1.029-39.1,1.955-78.1,5.588-118.156,4.562l2.5,3.619c92.567,2.036,185.814.431,276.94-4.843,9.306-.538,1.388-3.376-4.319-3.624-91.559-3.984-183.052,3.231-274.773,1.393-10.353-.207-5.192,3.465,2.5,3.619Z" transform="translate(-118.831 -607.342)"/></g></svg>